<svg width="307" height="275" viewBox="0 0 307 275" fill="none" xmlns="http://www.w3.org/2000/svg">
<g clip-path="url(#clip0_1567_28269)">
<path d="M354.582 222.345C294.707 247.183 247.131 294.759 222.293 354.634L218.877 353.145C244.098 292.422 292.353 244.167 353.076 218.946L354.582 222.345Z" fill="#3A86FF"/>
<path d="M391.404 185.383C348.504 197.943 299.053 216.353 257.713 257.694C216.372 299.034 197.909 348.538 185.385 391.402L181.811 390.351C194.511 346.996 213.149 297.002 255.085 255.066C297.021 213.13 346.998 194.509 390.353 181.809L391.404 185.383Z" fill="#3A86FF"/>
<path d="M421.865 154.85C358.085 171.159 292.116 188.046 240.09 240.071C188.064 292.097 171.16 358.05 154.851 421.865L151.26 420.936C167.639 356.736 184.701 290.206 237.497 237.409C290.294 184.612 356.719 167.656 421.025 151.172L421.865 154.85Z" fill="#3A86FF"/>
<path d="M452.468 124.318C436.528 128.978 420.114 133.164 404.243 137.228C340.428 153.502 274.546 170.336 222.45 222.432C170.354 274.528 153.52 340.41 137.159 404.312C133.113 420.166 128.926 436.579 124.249 452.537L120.676 451.486C125.318 435.598 129.504 419.22 133.568 403.384C149.947 339.184 167.009 272.654 219.805 219.857C272.602 167.06 339.027 150.103 403.332 133.62C419.168 129.591 435.529 125.387 451.417 120.745L452.468 124.318Z" fill="#3A86FF"/>
<path d="M489.709 87.2174C456.619 101.704 421.042 110.796 386.638 119.589C322.911 135.985 257.029 152.819 204.933 204.915C152.837 257.011 136.003 322.893 119.537 386.691C110.743 421.095 101.634 456.689 87.1476 489.779L83.7318 488.29C98.1309 455.358 107.257 419.956 116.016 385.692C132.377 321.474 149.456 254.962 202.253 202.165C255.05 149.368 321.475 132.412 385.78 115.928C420.044 107.169 455.516 98.0781 488.29 83.7316L489.709 87.2174Z" fill="#3A86FF"/>
</g>
<defs>
<clipPath id="clip0_1567_28269">
<rect width="571.934" height="121.982" fill="white" transform="translate(0 404.418) rotate(-45)"/>
</clipPath>
</defs>
</svg>
