<svg width="24" height="24" viewBox="0 0 24 24" fill="none" xmlns="http://www.w3.org/2000/svg">
<path d="M3.5137 11.5H2.51211C2.56776 10.3989 2.81463 9.31452 3.24292 8.29584L3.5137 11.5ZM3.5137 11.5C3.5675 10.5541 3.7794 9.6227 4.14171 8.74476C4.56786 7.71212 5.1937 6.77378 5.98334 5.98357C6.75705 5.20742 7.675 4.58997 8.68556 4.16594L8.68719 4.16526C10.7673 3.30107 13.1031 3.28544 15.1947 4.12174L15.499 4.24345L15.5088 4.57113C15.5242 5.08848 15.7407 5.57943 16.1124 5.93962C16.4841 6.29982 16.9816 6.50085 17.4992 6.5L17.5 6.5C18.6099 6.5 19.5 5.60986 19.5 4.5C19.5 3.39014 18.6099 2.5 17.5 2.5C16.9473 2.5 16.45 2.72074 16.0898 3.07934L15.8566 3.31144L15.5512 3.1892C13.2411 2.26456 10.5856 2.27943 8.29628 3.24472L8.29576 3.24494C7.16677 3.71947 6.14105 4.40941 5.27591 5.27621L5.27506 5.27707C4.40792 6.14167 3.71767 7.16704 3.24294 8.29579L3.5137 11.5ZM15.3129 19.8347L15.3149 19.8339C16.3278 19.4077 17.238 18.7951 18.0166 18.0166C18.7951 17.238 19.4076 16.3279 19.8338 15.3161C20.2111 14.4205 20.4315 13.4679 20.4864 12.5H21.4879C21.4322 13.601 21.1851 14.6852 20.7563 15.7036C20.0301 17.4247 18.8118 18.893 17.2541 19.9242C15.6965 20.9554 13.869 21.5036 12.001 21.5H11.9997C10.7833 21.5007 9.57817 21.2669 8.45025 20.8114L8.14418 20.6878L7.91025 20.9207C7.55005 21.2793 7.05276 21.5 6.50002 21.5C5.39016 21.5 4.50002 20.6099 4.50002 19.5C4.50002 18.3901 5.39016 17.5 6.50002 17.5L6.50084 17.5C7.01842 17.4991 7.51593 17.7002 7.88761 18.0604C8.25929 18.4206 8.47585 18.9115 8.49124 19.4289L8.50099 19.7565L8.80539 19.8783C10.8969 20.7146 13.2327 20.6989 15.3129 19.8347Z" fill="#F9FAFB" stroke="white"/>
<path d="M7.96191 11.9999C7.96191 9.77406 9.77406 7.96191 11.9999 7.96191C14.2258 7.96191 16.0379 9.77406 16.0379 11.9999C16.0379 14.2258 14.2258 16.0379 11.9999 16.0379C9.77406 16.0379 7.96191 14.2258 7.96191 11.9999ZM8.96191 11.9999C8.96191 13.6751 10.3248 15.0379 11.9999 15.0379C13.6751 15.0379 15.0379 13.6751 15.0379 11.9999C15.0379 10.3248 13.6751 8.96191 11.9999 8.96191C10.3248 8.96191 8.96191 10.3248 8.96191 11.9999Z" fill="#F9FAFB" stroke="white"/>
</svg>
