<svg width="66" height="66" viewBox="0 0 66 66" fill="none" xmlns="http://www.w3.org/2000/svg">
<path d="M25.2175 42.8452C24.695 42.8452 24.1725 42.6527 23.76 42.2402C22.9625 41.4427 22.9625 40.1227 23.76 39.3252L39.325 23.7602C40.1225 22.9627 41.4425 22.9627 42.24 23.7602C43.0375 24.5577 43.0375 25.8777 42.24 26.6752L26.675 42.2402C26.29 42.6527 25.74 42.8452 25.2175 42.8452Z" fill="#292D32"/>
<path d="M40.7825 42.8452C40.26 42.8452 39.7375 42.6527 39.325 42.2402L23.76 26.6752C22.9625 25.8777 22.9625 24.5577 23.76 23.7602C24.5575 22.9627 25.8775 22.9627 26.675 23.7602L42.24 39.3252C43.0375 40.1227 43.0375 41.4427 42.24 42.2402C41.8275 42.6527 41.305 42.8452 40.7825 42.8452Z" fill="#292D32"/>
</svg>
