<svg width="120" height="120" viewBox="0 0 120 120" fill="none" xmlns="http://www.w3.org/2000/svg">
<path d="M78.9999 11.05C76.9499 8.99997 73.3999 10.4 73.3999 13.25V30.7C73.3999 38 79.5999 44.05 87.1499 44.05C91.8999 44.1 98.4999 44.1 104.15 44.1C107 44.1 108.5 40.75 106.5 38.75C99.2999 31.5 86.3999 18.45 78.9999 11.05Z" fill="#3A86FF"/>
<path d="M73.7998 96.3001C62.0498 97.1501 62.0498 114.15 73.7998 115H101.6C104.95 115 108.25 113.75 110.7 111.5C118.95 104.3 114.55 89.9001 103.7 88.5501C99.7998 65.1001 65.8998 74.0001 73.8998 96.3501" fill="#3A86FF"/>
<path d="M107.5 55.95V72.2C107.5 73.7 105.3 74.4 104.2 73.35C101.8 71 98.85 69.2 95.45 68.15C87.05 65.55 77.3 68.1 71.25 74.5C67.2 78.7 65.15 84.05 65.2 89.85C65.2 90.8 64.75 91.65 64 92.2C60 95.25 57.5 100.05 57.5 105.6C57.5 106 57.5 106.4 57.55 106.8C57.65 108.4 56.5 109.95 54.85 109.95H40.35C24.95 109.95 12.5 99.95 12.5 82.1V37.85C12.5 20 24.95 10 40.35 10H61.55C64.3 10 66.55 12.25 66.55 15V29.45C66.55 41.35 76.15 50.95 88.05 50.95H102.5C105.25 50.95 107.5 53.2 107.5 55.95Z" fill="#3A86FF"/>
</svg>
