<svg width="11" height="11" viewBox="0 0 11 11" fill="none" xmlns="http://www.w3.org/2000/svg">
<path d="M6.70068 5.52319C6.70068 6.33106 6.04786 6.98388 5.23999 6.98388C4.43212 6.98388 3.7793 6.33106 3.7793 5.52319C3.7793 4.71532 4.43212 4.0625 5.23999 4.0625C6.04786 4.0625 6.70068 4.71532 6.70068 5.52319Z" stroke="white" stroke-width="0.918033" stroke-linecap="round" stroke-linejoin="round"/>
<path d="M5.23949 8.89717C6.67978 8.89717 8.02215 8.0485 8.95651 6.57965C9.32372 6.00435 9.32372 5.03735 8.95651 4.46205C8.02215 2.9932 6.67978 2.14453 5.23949 2.14453C3.7992 2.14453 2.45683 2.9932 1.52248 4.46205C1.15527 5.03735 1.15527 6.00435 1.52248 6.57965C2.45683 8.0485 3.7992 8.89717 5.23949 8.89717Z" stroke="white" stroke-width="0.918033" stroke-linecap="round" stroke-linejoin="round"/>
</svg>
