<svg width="25" height="24" viewBox="0 0 25 24" fill="none" xmlns="http://www.w3.org/2000/svg">
<path d="M22.8952 2.13099C21.4899 0.710329 19.0417 0 15.5504 0H3V5.35791H14.5356C16.0383 5.35791 17.0298 5.62614 17.5101 6.16261C17.9903 6.69908 18.2315 7.99391 18.2336 10.0471V13.9945C18.2336 16.0463 17.9955 17.3351 17.5195 17.8607C17.0434 18.3864 16.0488 18.6499 14.5356 18.6512H3V24H15.5504C19.0417 24 21.4899 23.2897 22.8952 21.869C24.3005 20.4484 25.0021 17.9666 25 14.4237V9.57625C25 6.03002 24.2984 3.54826 22.8952 2.13099Z" fill="#3886FF"/>
<path d="M7.81005 7.84631V16.1537C7.8103 16.4985 7.93542 16.8291 8.15797 17.0731C8.38051 17.317 8.68231 17.4543 8.99716 17.4548V18L8.37137 17.8681L1.20227 16.3479L0.633375 16.2264C0.467272 16.1396 0.322871 16.01 0.212555 15.8486C0.102239 15.6873 0.0293024 15.4991 0 15.3001V9.27726C0.0270453 9.08898 0.0931635 8.91001 0.193269 8.75411C0.293375 8.59821 0.4248 8.46953 0.577433 8.37798L0.597344 8.36552L1.09987 8.22534L8.19026 6.22741L9 6V6.54517C8.84386 6.54503 8.68922 6.57858 8.54492 6.6439C8.40061 6.70921 8.26947 6.80501 8.15897 6.92584C8.04847 7.04666 7.96079 7.19013 7.90092 7.34807C7.84105 7.506 7.81017 7.67531 7.81005 7.84631Z" fill="#3886FF"/>
<path d="M9.49958 6C9.1019 6.00027 8.72059 6.19421 8.43946 6.53917C8.15834 6.88414 8.00042 7.35189 8.00042 7.8396V16.1168C7.99568 16.362 8.03096 16.6058 8.10419 16.834C8.17742 17.0623 8.28712 17.2702 8.42684 17.4457C8.56656 17.6211 8.73347 17.7606 8.91777 17.8558C9.10207 17.951 9.30002 18 9.5 18C9.69998 18 9.89793 17.951 10.0822 17.8558C10.2665 17.7606 10.4334 17.6211 10.5732 17.4457C10.7129 17.2702 10.8226 17.0623 10.8958 16.834C10.969 16.6058 11.0043 16.362 10.9996 16.1168V7.8396C10.9989 7.35196 10.8407 6.88453 10.5595 6.53971C10.2783 6.1949 9.8972 6.00082 9.49958 6ZM10.5567 16.1147C10.5607 16.288 10.5363 16.4604 10.485 16.622C10.4337 16.7835 10.3565 16.9307 10.258 17.055C10.1594 17.1793 10.0416 17.2781 9.91142 17.3455C9.78123 17.413 9.64133 17.4477 9.5 17.4477C9.35867 17.4477 9.21877 17.413 9.08858 17.3455C8.95839 17.2781 8.84056 17.1793 8.74204 17.055C8.64353 16.9307 8.56633 16.7835 8.51503 16.622C8.46372 16.4604 8.43934 16.288 8.44334 16.1147V7.83753C8.43934 7.66427 8.46372 7.49179 8.51503 7.33028C8.56633 7.16878 8.64353 7.02153 8.74204 6.89725C8.84056 6.77297 8.95839 6.67418 9.08858 6.60672C9.21877 6.53926 9.35867 6.5045 9.5 6.5045C9.64133 6.5045 9.78123 6.53926 9.91142 6.60672C10.0416 6.67418 10.1594 6.77297 10.258 6.89725C10.3565 7.02153 10.4337 7.16878 10.485 7.33028C10.5363 7.49179 10.5607 7.66427 10.5567 7.83753V16.1147Z" fill="#3886FF"/>
<path d="M9.76393 10H9.23607C9.10569 10 9 10.0869 9 10.1942V16.8058C9 16.9131 9.10569 17 9.23607 17H9.76393C9.89431 17 10 16.9131 10 16.8058V10.1942C10 10.0869 9.89431 10 9.76393 10Z" fill="#3886FF"/>
<path d="M9.76393 8H9.23607C9.10569 8 9 8.10569 9 8.23607V8.76393C9 8.89431 9.10569 9 9.23607 9H9.76393C9.89431 9 10 8.89431 10 8.76393V8.23607C10 8.10569 9.89431 8 9.76393 8Z" fill="#3886FF"/>
</svg>
