<svg width="96" height="16" viewBox="0 0 96 16" fill="none" xmlns="http://www.w3.org/2000/svg">
<path d="M8.00004 1.33301L10.06 5.50634L14.6667 6.17968L11.3334 9.42634L12.12 14.013L8.00004 11.8463L3.88004 14.013L4.66671 9.42634L1.33337 6.17968L5.94004 5.50634L8.00004 1.33301Z" fill="#3A86FF" stroke="#3A86FF" stroke-width="2" stroke-linecap="round" stroke-linejoin="round"/>
<path d="M28 1.33301L30.06 5.50634L34.6667 6.17968L31.3334 9.42634L32.12 14.013L28 11.8463L23.88 14.013L24.6667 9.42634L21.3334 6.17968L25.94 5.50634L28 1.33301Z" fill="#3A86FF" stroke="#3A86FF" stroke-width="2" stroke-linecap="round" stroke-linejoin="round"/>
<path d="M48 1.33301L50.06 5.50634L54.6667 6.17968L51.3334 9.42634L52.12 14.013L48 11.8463L43.88 14.013L44.6667 9.42634L41.3334 6.17968L45.94 5.50634L48 1.33301Z" fill="#3A86FF" stroke="#3A86FF" stroke-width="2" stroke-linecap="round" stroke-linejoin="round"/>
<path d="M68 1.33301L70.06 5.50634L74.6667 6.17968L71.3334 9.42634L72.12 14.013L68 11.8463L63.88 14.013L64.6667 9.42634L61.3334 6.17968L65.94 5.50634L68 1.33301Z" fill="#3A86FF" stroke="#3A86FF" stroke-width="2" stroke-linecap="round" stroke-linejoin="round"/>
<path d="M88 1.33301L90.06 5.50634L94.6667 6.17967L91.3334 9.42634L92.12 14.013L88 11.8463L83.88 14.013L84.6667 9.42634L81.3334 6.17967L85.94 5.50634L88 1.33301Z" stroke="#3A86FF" stroke-width="2" stroke-linecap="round" stroke-linejoin="round"/>
</svg>
