<svg id="Layer_1" data-name="Layer 1" xmlns="http://www.w3.org/2000/svg" viewBox="0 0 789.04 236.44"><defs><style>.cls-1{fill:#212121;}</style></defs><title><span style="color: #3a86ff;">d</span>eevr</title><path class="cls-1" d="M380.07,319.2q-20.19-21-70.35-21H189.51V351H300q21.59,0,28.49,7.93t6.93,38.28v38.9q0,30.33-6.84,38.1T300,482H189.51v52.71H309.72q50.16,0,70.35-21t20.16-73.37V392.57Q400.23,340.15,380.07,319.2Z" transform="translate(-160.96 -298.24)"/><path class="cls-1" d="M243.36,376.47v80A12.54,12.54,0,0,0,255.88,469v5.25l-6.6-1.27-75.61-14.64-6-1.17a12,12,0,0,1-6.68-8.92v-58a12,12,0,0,1,6.09-8.66l.21-.12,5.3-1.35,74.78-19.24,8.54-2.19v5.25A12.54,12.54,0,0,0,243.36,376.47Z" transform="translate(-160.96 -298.24)"/><path class="cls-1" d="M255.88,358.69a17.78,17.78,0,0,0-17.77,17.78v80a17.78,17.78,0,1,0,35.55,0v-80A17.81,17.81,0,0,0,255.88,358.69Zm12.53,97.76a12.53,12.53,0,1,1-25.05,0v-80a12.53,12.53,0,1,1,25.05,0Z" transform="translate(-160.96 -298.24)"/><rect class="cls-1" x="91.15" y="100.55" width="7.54" height="64.16" rx="1.78"/><rect class="cls-1" x="91.15" y="78.56" width="7.54" height="7.54" rx="1.78"/><path class="cls-1" d="M391.91,373.9h-1.45" transform="translate(-160.96 -298.24)"/><path class="cls-1" d="M381.77,369.56l-.72-.73" transform="translate(-160.96 -298.24)"/><path class="cls-1" d="M532.15,491.68q-1.49,22.05-13.43,31.71t-37.56,9.67H463.8q-28.46,0-40-11.83t-11.51-41.38V453.13q0-29.43,11.51-41.32t40-11.88h17.36q28.45,0,40,11.88t11.52,41.32v20.44H453.7v15.89q0,8.75,3.63,12.32t12.75,3.57h5.29q8.5,0,11.95-3t4.19-10.71ZM453.7,451.9h38.55v-4.56q0-12.93-3.39-17.18t-13.24-4.25h-5.3q-9.6,0-13.11,4.13t-3.51,16.07Z" transform="translate(-160.96 -298.24)"/><path class="cls-1" d="M675.37,491.68Q673.9,513.73,662,523.39t-37.56,9.67H607q-28.44,0-40-11.83t-11.52-41.38V453.13q0-29.43,11.52-41.32t40-11.88h17.37q28.44,0,40,11.88t11.51,41.32v20.44H596.92v15.89q0,8.75,3.64,12.32t12.74,3.57h5.3q8.49,0,11.94-3t4.19-10.71ZM596.92,451.9h38.55v-4.56q0-12.93-3.39-17.18t-13.24-4.25h-5.29q-9.6,0-13.12,4.13t-3.51,16.07Z" transform="translate(-160.96 -298.24)"/><path class="cls-1" d="M688.18,401.65h44.46l22.9,97.66,24-97.66h44.33l-38,129.68H724.51Z" transform="translate(-160.96 -298.24)"/><path class="cls-1" d="M844.21,531.33V401.65h39.9l-.49,18.48q4.92-10.72,12.32-15.46t19.21-4.74q19.58,0,27.21,10T950,447.1v11.57H911.33v-8.25q0-9.36-2.77-13.05t-10-3.7q-7.63,0-10.4,4.31t-2.78,20.69v72.66Z" transform="translate(-160.96 -298.24)"/></svg>