<svg width="652" height="99" viewBox="0 0 652 99" fill="none" xmlns="http://www.w3.org/2000/svg">
<path d="M150.292 50.48C145.812 50.48 142.436 49.312 140.164 46.976C137.892 44.608 136.756 40.912 136.756 35.888V17.84H143.62V35.984C143.62 38.736 144.164 40.736 145.252 41.984C146.34 43.232 148.036 43.856 150.34 43.856C152.708 43.856 154.404 43.232 155.428 41.984C156.484 40.736 157.012 38.736 157.012 35.984V17.84H163.876V35.888C163.876 40.912 162.756 44.608 160.516 46.976C158.276 49.312 154.868 50.48 150.292 50.48ZM178.77 50.48C177.042 50.48 175.394 50.288 173.826 49.904C172.258 49.488 170.882 48.928 169.698 48.224C168.514 47.488 167.57 46.656 166.866 45.728L170.034 41.072C170.706 41.744 171.506 42.416 172.434 43.088C173.394 43.728 174.418 44.256 175.506 44.672C176.626 45.056 177.778 45.248 178.962 45.248C179.89 45.248 180.61 45.104 181.122 44.816C181.666 44.496 181.938 44.032 181.938 43.424C181.938 42.816 181.602 42.352 180.93 42.032C180.29 41.712 179.346 41.392 178.098 41.072L174.93 40.304C173.522 39.92 172.258 39.456 171.138 38.912C170.05 38.368 169.186 37.664 168.546 36.8C167.938 35.904 167.634 34.768 167.634 33.392C167.634 31.056 168.498 29.248 170.226 27.968C171.954 26.688 174.258 26.048 177.138 26.048C179.698 26.048 181.858 26.512 183.618 27.44C185.41 28.336 186.722 29.296 187.554 30.32L184.482 34.928C183.33 33.744 182.066 32.832 180.69 32.192C179.314 31.552 177.938 31.232 176.562 31.232C175.73 31.232 175.074 31.392 174.594 31.712C174.114 32 173.874 32.432 173.874 33.008C173.874 33.616 174.162 34.096 174.738 34.448C175.346 34.8 176.434 35.184 178.002 35.6L180.642 36.32C183.234 37.024 185.122 37.92 186.306 39.008C187.49 40.096 188.082 41.536 188.082 43.328C188.082 44.832 187.682 46.128 186.882 47.216C186.082 48.272 184.994 49.088 183.618 49.664C182.242 50.208 180.626 50.48 178.77 50.48ZM202.173 50.48C199.677 50.48 197.517 49.968 195.693 48.944C193.901 47.92 192.525 46.48 191.565 44.624C190.605 42.768 190.125 40.64 190.125 38.24C190.125 35.808 190.605 33.68 191.565 31.856C192.525 30 193.869 28.56 195.597 27.536C197.325 26.512 199.325 26 201.597 26C204.093 26 206.173 26.496 207.837 27.488C209.501 28.48 210.749 29.824 211.581 31.52C212.413 33.216 212.829 35.088 212.829 37.136C212.829 37.648 212.797 38.192 212.733 38.768C212.701 39.312 212.653 39.728 212.589 40.016H195.021V36.08H207.789L206.685 36.992C206.685 35.136 206.269 33.728 205.437 32.768C204.605 31.776 203.341 31.28 201.645 31.28C200.045 31.28 198.781 31.776 197.853 32.768C196.957 33.728 196.509 35.184 196.509 37.136V38.912C196.509 40.288 196.749 41.424 197.229 42.32C197.709 43.184 198.381 43.84 199.245 44.288C200.141 44.704 201.149 44.912 202.269 44.912C203.389 44.912 204.333 44.768 205.101 44.48C205.869 44.192 206.509 43.792 207.021 43.28C207.533 42.736 207.933 42.128 208.221 41.456L212.397 45.632C211.533 46.88 210.269 48 208.605 48.992C206.973 49.984 204.829 50.48 202.173 50.48ZM223.639 50H216.775V26.48H223.639V50ZM223.639 37.568L223.447 35.12C223.575 34.032 223.815 32.96 224.167 31.904C224.519 30.816 224.999 29.824 225.607 28.928C226.247 28.032 227.031 27.328 227.959 26.816C228.887 26.272 229.975 26 231.223 26C232.983 26 234.311 26.528 235.207 27.584C236.135 28.608 236.599 30.048 236.599 31.904C236.599 33.152 236.439 34.272 236.119 35.264C235.831 36.224 235.543 36.928 235.255 37.376H228.631C229.079 36.928 229.463 36.336 229.783 35.6C230.135 34.864 230.311 34.16 230.311 33.488C230.311 32.816 230.151 32.256 229.831 31.808C229.511 31.36 228.967 31.136 228.199 31.136C227.431 31.136 226.695 31.408 225.991 31.952C225.287 32.464 224.711 33.2 224.263 34.16C223.847 35.12 223.639 36.256 223.639 37.568ZM263.339 50H256.475V17.84H263.339V50ZM272.939 23.936H246.875V17.84H272.939V23.936ZM282.939 50.48C280.443 50.48 278.283 49.968 276.459 48.944C274.667 47.92 273.291 46.48 272.331 44.624C271.371 42.768 270.891 40.64 270.891 38.24C270.891 35.808 271.371 33.68 272.331 31.856C273.291 30 274.635 28.56 276.363 27.536C278.091 26.512 280.091 26 282.363 26C284.859 26 286.939 26.496 288.603 27.488C290.267 28.48 291.515 29.824 292.347 31.52C293.179 33.216 293.595 35.088 293.595 37.136C293.595 37.648 293.563 38.192 293.499 38.768C293.467 39.312 293.419 39.728 293.355 40.016H275.787V36.08H288.555L287.451 36.992C287.451 35.136 287.035 33.728 286.203 32.768C285.371 31.776 284.107 31.28 282.411 31.28C280.811 31.28 279.547 31.776 278.619 32.768C277.723 33.728 277.275 35.184 277.275 37.136V38.912C277.275 40.288 277.515 41.424 277.995 42.32C278.475 43.184 279.147 43.84 280.011 44.288C280.907 44.704 281.915 44.912 283.035 44.912C284.155 44.912 285.099 44.768 285.867 44.48C286.635 44.192 287.275 43.792 287.787 43.28C288.299 42.736 288.699 42.128 288.987 41.456L293.163 45.632C292.299 46.88 291.035 48 289.371 48.992C287.739 49.984 285.595 50.48 282.939 50.48ZM307.536 50.48C305.808 50.48 304.16 50.288 302.592 49.904C301.024 49.488 299.648 48.928 298.464 48.224C297.28 47.488 296.336 46.656 295.632 45.728L298.8 41.072C299.472 41.744 300.272 42.416 301.2 43.088C302.16 43.728 303.184 44.256 304.272 44.672C305.392 45.056 306.544 45.248 307.728 45.248C308.656 45.248 309.376 45.104 309.888 44.816C310.432 44.496 310.704 44.032 310.704 43.424C310.704 42.816 310.368 42.352 309.696 42.032C309.056 41.712 308.112 41.392 306.864 41.072L303.696 40.304C302.288 39.92 301.024 39.456 299.904 38.912C298.816 38.368 297.952 37.664 297.312 36.8C296.704 35.904 296.4 34.768 296.4 33.392C296.4 31.056 297.264 29.248 298.992 27.968C300.72 26.688 303.024 26.048 305.904 26.048C308.464 26.048 310.624 26.512 312.384 27.44C314.176 28.336 315.488 29.296 316.32 30.32L313.248 34.928C312.096 33.744 310.832 32.832 309.456 32.192C308.08 31.552 306.704 31.232 305.328 31.232C304.496 31.232 303.84 31.392 303.36 31.712C302.88 32 302.64 32.432 302.64 33.008C302.64 33.616 302.928 34.096 303.504 34.448C304.112 34.8 305.2 35.184 306.768 35.6L309.408 36.32C312 37.024 313.888 37.92 315.072 39.008C316.256 40.096 316.848 41.536 316.848 43.328C316.848 44.832 316.448 46.128 315.648 47.216C314.848 48.272 313.76 49.088 312.384 49.664C311.008 50.208 309.392 50.48 307.536 50.48ZM329.259 50.48C327.531 50.48 326.091 50.16 324.939 49.52C323.819 48.88 322.987 48 322.443 46.88C321.899 45.76 321.627 44.48 321.627 43.04V23.696L328.491 20.096V41.792C328.491 42.752 328.699 43.424 329.115 43.808C329.563 44.192 330.123 44.384 330.795 44.384C331.531 44.384 332.203 44.144 332.811 43.664C333.451 43.152 333.947 42.56 334.299 41.888L336.267 47.504C335.755 48.144 334.907 48.8 333.723 49.472C332.539 50.144 331.051 50.48 329.259 50.48ZM335.019 31.712H318.123V26.48H335.019V31.712ZM346.217 23.696H339.353V17.84H346.217V23.696ZM346.217 50H339.353V26.48H346.217V50ZM386.736 50H379.872V35.984C379.872 34.448 379.6 33.296 379.056 32.528C378.512 31.728 377.536 31.328 376.128 31.328C375.2 31.328 374.464 31.536 373.92 31.952C373.376 32.368 372.976 32.992 372.72 33.824C372.464 34.656 372.336 35.712 372.336 36.992L372.144 34.544C372.304 33.104 372.656 31.728 373.2 30.416C373.744 29.104 374.56 28.048 375.648 27.248C376.768 26.416 378.224 26 380.016 26C382.16 26 383.808 26.656 384.96 27.968C386.144 29.28 386.736 31.152 386.736 33.584V50ZM357.936 50H351.072V26.48H357.936V50ZM372.336 50H365.472V35.984C365.472 34.448 365.2 33.296 364.656 32.528C364.112 31.728 363.136 31.328 361.728 31.328C360.8 31.328 360.064 31.536 359.52 31.952C358.976 32.368 358.576 32.992 358.32 33.824C358.064 34.656 357.936 35.712 357.936 36.992L357.744 34.544C357.904 33.104 358.256 31.728 358.8 30.416C359.344 29.104 360.16 28.048 361.248 27.248C362.368 26.416 363.824 26 365.616 26C367.76 26 369.408 26.656 370.56 27.968C371.744 29.28 372.336 31.152 372.336 33.584V50ZM401.898 50.48C399.53 50.48 397.45 49.968 395.658 48.944C393.898 47.888 392.538 46.432 391.578 44.576C390.618 42.72 390.138 40.608 390.138 38.24C390.138 35.84 390.618 33.728 391.578 31.904C392.538 30.048 393.898 28.608 395.658 27.584C397.45 26.528 399.53 26 401.898 26C404.33 26 406.442 26.528 408.234 27.584C410.058 28.608 411.45 30.048 412.41 31.904C413.402 33.728 413.898 35.84 413.898 38.24C413.898 40.608 413.402 42.72 412.41 44.576C411.45 46.432 410.058 47.888 408.234 48.944C406.442 49.968 404.33 50.48 401.898 50.48ZM401.994 44.912C402.986 44.912 403.85 44.688 404.586 44.24C405.322 43.792 405.898 43.088 406.314 42.128C406.73 41.136 406.938 39.84 406.938 38.24C406.938 36.64 406.73 35.36 406.314 34.4C405.898 33.408 405.322 32.688 404.586 32.24C403.85 31.792 402.986 31.568 401.994 31.568C401.034 31.568 400.186 31.792 399.45 32.24C398.714 32.688 398.138 33.408 397.722 34.4C397.306 35.36 397.098 36.64 397.098 38.24C397.098 39.84 397.306 41.136 397.722 42.128C398.138 43.088 398.714 43.792 399.45 44.24C400.186 44.688 401.034 44.912 401.994 44.912ZM439.617 50H432.753V35.984C432.753 34.544 432.497 33.408 431.985 32.576C431.505 31.744 430.465 31.328 428.865 31.328C427.777 31.328 426.913 31.536 426.273 31.952C425.665 32.368 425.217 32.992 424.929 33.824C424.673 34.656 424.545 35.712 424.545 36.992L424.353 34.544C424.513 33.104 424.881 31.728 425.457 30.416C426.033 29.104 426.881 28.048 428.001 27.248C429.153 26.416 430.625 26 432.417 26C434.657 26 436.417 26.656 437.697 27.968C438.977 29.28 439.617 31.152 439.617 33.584V50ZM424.545 50H417.681V26.48H424.545V50ZM451.17 23.696H444.306V17.84H451.17V23.696ZM451.17 50H444.306V26.48H451.17V50ZM477.625 50H473.593C472.761 50 471.977 49.856 471.241 49.568C470.505 49.28 469.897 48.816 469.417 48.176C468.969 47.504 468.745 46.608 468.745 45.488V37.376L468.937 36.416C468.937 34.976 468.697 33.856 468.217 33.056C467.737 32.256 466.697 31.856 465.097 31.856C463.593 31.856 462.201 32.24 460.921 33.008C459.641 33.744 458.585 34.704 457.753 35.888L454.297 30.896C455.065 30.032 456.009 29.232 457.129 28.496C458.249 27.76 459.513 27.168 460.921 26.72C462.361 26.24 463.913 26 465.577 26C468.553 26 470.857 26.784 472.489 28.352C474.153 29.888 474.985 32.128 474.985 35.072V43.136C474.985 43.648 475.081 44.016 475.273 44.24C475.497 44.432 475.817 44.528 476.233 44.528H477.625V50ZM461.113 50.528C459.289 50.528 457.801 50.048 456.649 49.088C455.497 48.096 454.921 46.656 454.921 44.768C454.921 42.976 455.481 41.536 456.601 40.448C457.753 39.328 459.433 38.384 461.641 37.616L469.465 34.688L470.089 38.768L463.753 41.408C462.825 41.792 462.169 42.176 461.785 42.56C461.433 42.912 461.257 43.312 461.257 43.76C461.257 44.304 461.449 44.736 461.833 45.056C462.249 45.344 462.857 45.488 463.657 45.488C464.457 45.488 465.177 45.392 465.817 45.2C466.457 44.976 466.985 44.672 467.401 44.288C467.849 43.904 468.185 43.44 468.409 42.896C468.633 42.352 468.745 41.712 468.745 40.976L468.889 43.28C468.665 44.336 468.265 45.424 467.689 46.544C467.145 47.632 466.329 48.576 465.241 49.376C464.185 50.144 462.809 50.528 461.113 50.528ZM487.733 50H480.869V17.84H487.733V50ZM503.052 50.48C501.324 50.48 499.676 50.288 498.108 49.904C496.54 49.488 495.164 48.928 493.98 48.224C492.796 47.488 491.852 46.656 491.148 45.728L494.316 41.072C494.988 41.744 495.788 42.416 496.716 43.088C497.676 43.728 498.7 44.256 499.788 44.672C500.908 45.056 502.06 45.248 503.244 45.248C504.172 45.248 504.892 45.104 505.404 44.816C505.948 44.496 506.22 44.032 506.22 43.424C506.22 42.816 505.884 42.352 505.212 42.032C504.572 41.712 503.628 41.392 502.38 41.072L499.212 40.304C497.804 39.92 496.54 39.456 495.42 38.912C494.332 38.368 493.468 37.664 492.828 36.8C492.22 35.904 491.916 34.768 491.916 33.392C491.916 31.056 492.78 29.248 494.508 27.968C496.236 26.688 498.54 26.048 501.42 26.048C503.98 26.048 506.14 26.512 507.9 27.44C509.692 28.336 511.004 29.296 511.836 30.32L508.764 34.928C507.612 33.744 506.348 32.832 504.972 32.192C503.596 31.552 502.22 31.232 500.844 31.232C500.012 31.232 499.356 31.392 498.876 31.712C498.396 32 498.156 32.432 498.156 33.008C498.156 33.616 498.444 34.096 499.02 34.448C499.628 34.8 500.716 35.184 502.284 35.6L504.924 36.32C507.516 37.024 509.404 37.92 510.588 39.008C511.772 40.096 512.364 41.536 512.364 43.328C512.364 44.832 511.964 46.128 511.164 47.216C510.364 48.272 509.276 49.088 507.9 49.664C506.524 50.208 504.908 50.48 503.052 50.48Z" fill="black"/>
<path d="M16.8779 91H15.3299V78.94H16.8779V91ZM23.2139 91H15.8519V89.614H23.2139V91ZM27.7524 91.18C26.9364 91.18 26.2104 90.994 25.5744 90.622C24.9504 90.25 24.4584 89.728 24.0984 89.056C23.7504 88.372 23.5764 87.568 23.5764 86.644C23.5764 85.72 23.7504 84.922 24.0984 84.25C24.4464 83.566 24.9264 83.038 25.5384 82.666C26.1624 82.294 26.8704 82.108 27.6624 82.108C28.4784 82.108 29.1804 82.282 29.7684 82.63C30.3684 82.966 30.8244 83.446 31.1364 84.07C31.4604 84.694 31.6224 85.438 31.6224 86.302C31.6224 86.434 31.6164 86.566 31.6044 86.698C31.5924 86.818 31.5744 86.92 31.5504 87.004H24.7644V85.87H30.6144L30.2364 86.41C30.2364 85.426 30.0084 84.682 29.5524 84.178C29.0964 83.674 28.4664 83.422 27.6624 83.422C26.8704 83.422 26.2404 83.686 25.7724 84.214C25.3164 84.73 25.0884 85.51 25.0884 86.554V86.752C25.0884 87.412 25.1964 87.976 25.4124 88.444C25.6284 88.912 25.9344 89.272 26.3304 89.524C26.7384 89.764 27.2124 89.884 27.7524 89.884C28.3404 89.884 28.8144 89.794 29.1744 89.614C29.5464 89.434 29.8404 89.212 30.0564 88.948C30.2724 88.672 30.4344 88.414 30.5424 88.174L31.4964 89.254C31.1724 89.77 30.7044 90.22 30.0924 90.604C29.4804 90.988 28.7004 91.18 27.7524 91.18ZM41.0397 91H40.0317C39.7317 91 39.4617 90.946 39.2217 90.838C38.9937 90.73 38.8137 90.556 38.6817 90.316C38.5497 90.076 38.4837 89.752 38.4837 89.344V85.726L38.4297 85.474C38.4297 84.922 38.2917 84.46 38.0157 84.088C37.7517 83.716 37.2537 83.53 36.5217 83.53C35.8977 83.53 35.3757 83.692 34.9557 84.016C34.5477 84.328 34.2297 84.724 34.0017 85.204L32.9397 84.106C33.1197 83.806 33.3777 83.506 33.7137 83.206C34.0617 82.894 34.4877 82.636 34.9917 82.432C35.4957 82.216 36.0657 82.108 36.7017 82.108C37.7697 82.108 38.5857 82.408 39.1497 83.008C39.7137 83.596 39.9957 84.412 39.9957 85.456V89.038C39.9957 89.242 40.0377 89.386 40.1217 89.47C40.2057 89.542 40.3257 89.578 40.4817 89.578H41.0397V91ZM35.4597 91.18C34.7277 91.18 34.1577 90.994 33.7497 90.622C33.3537 90.238 33.1557 89.758 33.1557 89.182C33.1557 88.594 33.3537 88.108 33.7497 87.724C34.1457 87.328 34.6557 86.992 35.2797 86.716L38.6997 85.186L38.9337 86.23L35.9277 87.634C35.5197 87.838 35.2197 88.042 35.0277 88.246C34.8357 88.438 34.7397 88.666 34.7397 88.93C34.7397 89.23 34.8417 89.464 35.0457 89.632C35.2497 89.8 35.5557 89.884 35.9637 89.884C36.3357 89.884 36.6717 89.83 36.9717 89.722C37.2837 89.602 37.5477 89.44 37.7637 89.236C37.9917 89.032 38.1657 88.798 38.2857 88.534C38.4177 88.27 38.4837 87.976 38.4837 87.652L38.5377 88.48C38.4657 88.888 38.3097 89.302 38.0697 89.722C37.8297 90.13 37.4937 90.478 37.0617 90.766C36.6297 91.042 36.0957 91.18 35.4597 91.18ZM44.401 91H42.853V82.288H44.401V91ZM44.401 86.068L44.293 85.33C44.341 84.922 44.431 84.526 44.563 84.142C44.707 83.758 44.893 83.416 45.121 83.116C45.361 82.804 45.649 82.558 45.985 82.378C46.321 82.198 46.705 82.108 47.137 82.108C47.605 82.108 48.025 82.264 48.397 82.576C48.781 82.888 48.973 83.356 48.973 83.98C48.973 84.352 48.931 84.67 48.847 84.934C48.775 85.186 48.703 85.366 48.631 85.474H46.921C47.065 85.342 47.185 85.156 47.281 84.916C47.389 84.676 47.443 84.436 47.443 84.196C47.443 83.944 47.371 83.728 47.227 83.548C47.095 83.356 46.867 83.26 46.543 83.26C46.171 83.26 45.823 83.392 45.499 83.656C45.175 83.92 44.911 84.262 44.707 84.682C44.503 85.102 44.401 85.564 44.401 86.068ZM57.6497 91H56.1017V85.366C56.1017 84.802 55.9637 84.34 55.6877 83.98C55.4237 83.62 54.9197 83.44 54.1757 83.44C53.6117 83.44 53.1617 83.56 52.8257 83.8C52.4897 84.028 52.2437 84.34 52.0877 84.736C51.9437 85.132 51.8717 85.576 51.8717 86.068L51.7637 85.33C51.8237 84.79 51.9677 84.274 52.1957 83.782C52.4357 83.278 52.7717 82.876 53.2037 82.576C53.6477 82.264 54.2057 82.108 54.8777 82.108C55.7297 82.108 56.4017 82.36 56.8937 82.864C57.3977 83.356 57.6497 84.064 57.6497 84.988V91ZM51.8717 91H50.3237V82.288H51.8717V91ZM66.1792 91H64.6132V81.478C64.6132 80.89 64.7272 80.398 64.9552 80.002C65.1952 79.594 65.5192 79.288 65.9272 79.084C66.3472 78.868 66.8272 78.76 67.3672 78.76C68.0392 78.76 68.5792 78.904 68.9872 79.192C69.4072 79.48 69.7072 79.762 69.8872 80.038L69.0232 81.154C68.8552 80.842 68.6272 80.584 68.3392 80.38C68.0632 80.164 67.7332 80.056 67.3492 80.056C66.9412 80.056 66.6412 80.17 66.4492 80.398C66.2692 80.614 66.1792 80.932 66.1792 81.352V82.468V91ZM68.9872 83.512H63.1912V82.288H68.9872V83.512ZM72.0866 91H70.5386V82.288H72.0866V91ZM72.0866 86.068L71.9786 85.33C72.0266 84.922 72.1166 84.526 72.2486 84.142C72.3926 83.758 72.5786 83.416 72.8066 83.116C73.0466 82.804 73.3346 82.558 73.6706 82.378C74.0066 82.198 74.3906 82.108 74.8226 82.108C75.2906 82.108 75.7106 82.264 76.0826 82.576C76.4666 82.888 76.6586 83.356 76.6586 83.98C76.6586 84.352 76.6166 84.67 76.5326 84.934C76.4606 85.186 76.3886 85.366 76.3166 85.474H74.6066C74.7506 85.342 74.8706 85.156 74.9666 84.916C75.0746 84.676 75.1286 84.436 75.1286 84.196C75.1286 83.944 75.0566 83.728 74.9126 83.548C74.7806 83.356 74.5526 83.26 74.2286 83.26C73.8566 83.26 73.5086 83.392 73.1846 83.656C72.8606 83.92 72.5966 84.262 72.3926 84.682C72.1886 85.102 72.0866 85.564 72.0866 86.068ZM81.3607 91.18C80.5567 91.18 79.8427 90.994 79.2187 90.622C78.6067 90.25 78.1267 89.722 77.7787 89.038C77.4307 88.354 77.2567 87.556 77.2567 86.644C77.2567 85.72 77.4307 84.922 77.7787 84.25C78.1267 83.566 78.6067 83.038 79.2187 82.666C79.8427 82.294 80.5567 82.108 81.3607 82.108C82.1647 82.108 82.8727 82.294 83.4847 82.666C84.1087 83.038 84.5947 83.566 84.9427 84.25C85.3027 84.922 85.4827 85.72 85.4827 86.644C85.4827 87.556 85.3027 88.354 84.9427 89.038C84.5947 89.722 84.1087 90.25 83.4847 90.622C82.8727 90.994 82.1647 91.18 81.3607 91.18ZM81.3607 89.866C81.8647 89.866 82.3027 89.752 82.6747 89.524C83.0587 89.284 83.3587 88.93 83.5747 88.462C83.7907 87.982 83.8987 87.376 83.8987 86.644C83.8987 85.912 83.7907 85.312 83.5747 84.844C83.3587 84.364 83.0587 84.01 82.6747 83.782C82.3027 83.542 81.8647 83.422 81.3607 83.422C80.8687 83.422 80.4307 83.542 80.0467 83.782C79.6747 84.01 79.3807 84.364 79.1647 84.844C78.9607 85.312 78.8587 85.912 78.8587 86.644C78.8587 87.376 78.9607 87.982 79.1647 88.462C79.3807 88.93 79.6747 89.284 80.0467 89.524C80.4307 89.752 80.8687 89.866 81.3607 89.866ZM99.8147 91H98.2667V85.348C98.2667 84.7 98.1107 84.22 97.7987 83.908C97.4867 83.596 97.0067 83.44 96.3587 83.44C95.9147 83.44 95.5487 83.56 95.2607 83.8C94.9847 84.028 94.7747 84.34 94.6307 84.736C94.4867 85.132 94.4147 85.576 94.4147 86.068L94.2887 85.33C94.3487 84.79 94.4927 84.274 94.7207 83.782C94.9487 83.278 95.2667 82.876 95.6747 82.576C96.0947 82.264 96.6107 82.108 97.2227 82.108C98.0747 82.108 98.7167 82.36 99.1487 82.864C99.5927 83.356 99.8147 84.058 99.8147 84.97V91ZM88.9967 91H87.4487V82.288H88.9967V91ZM94.4147 91H92.8487V85.348C92.8487 84.7 92.6927 84.22 92.3807 83.908C92.0807 83.596 91.6007 83.44 90.9407 83.44C90.4967 83.44 90.1307 83.56 89.8427 83.8C89.5667 84.028 89.3567 84.34 89.2127 84.736C89.0687 85.132 88.9967 85.576 88.9967 86.068L88.8887 85.33C88.9487 84.79 89.0927 84.274 89.3207 83.782C89.5487 83.278 89.8667 82.876 90.2747 82.576C90.6947 82.264 91.2107 82.108 91.8227 82.108C92.6747 82.108 93.3167 82.36 93.7487 82.864C94.1927 83.356 94.4147 84.058 94.4147 84.97V91ZM109.591 91.18C108.787 91.18 108.073 90.994 107.449 90.622C106.837 90.25 106.357 89.722 106.009 89.038C105.661 88.354 105.487 87.556 105.487 86.644C105.487 85.72 105.661 84.922 106.009 84.25C106.357 83.566 106.837 83.038 107.449 82.666C108.073 82.294 108.787 82.108 109.591 82.108C110.395 82.108 111.103 82.294 111.715 82.666C112.339 83.038 112.825 83.566 113.173 84.25C113.533 84.922 113.713 85.72 113.713 86.644C113.713 87.556 113.533 88.354 113.173 89.038C112.825 89.722 112.339 90.25 111.715 90.622C111.103 90.994 110.395 91.18 109.591 91.18ZM109.591 89.866C110.095 89.866 110.533 89.752 110.905 89.524C111.289 89.284 111.589 88.93 111.805 88.462C112.021 87.982 112.129 87.376 112.129 86.644C112.129 85.912 112.021 85.312 111.805 84.844C111.589 84.364 111.289 84.01 110.905 83.782C110.533 83.542 110.095 83.422 109.591 83.422C109.099 83.422 108.661 83.542 108.277 83.782C107.905 84.01 107.611 84.364 107.395 84.844C107.191 85.312 107.089 85.912 107.089 86.644C107.089 87.376 107.191 87.982 107.395 88.462C107.611 88.93 107.905 89.284 108.277 89.524C108.661 89.752 109.099 89.866 109.591 89.866ZM118.455 91.198C117.975 91.198 117.555 91.102 117.195 90.91C116.835 90.706 116.553 90.424 116.349 90.064C116.145 89.704 116.043 89.272 116.043 88.768V81.172L117.591 80.02V88.3C117.591 88.852 117.705 89.224 117.933 89.416C118.161 89.596 118.449 89.686 118.797 89.686C119.181 89.686 119.505 89.56 119.769 89.308C120.033 89.044 120.225 88.774 120.345 88.498L120.867 90.046C120.675 90.346 120.375 90.616 119.967 90.856C119.559 91.084 119.055 91.198 118.455 91.198ZM120.453 83.512H114.621V82.288H120.453V83.512ZM129.738 91H128.19V85.366C128.19 84.802 128.052 84.34 127.776 83.98C127.512 83.62 127.008 83.44 126.264 83.44C125.7 83.44 125.25 83.56 124.914 83.8C124.578 84.028 124.332 84.34 124.176 84.736C124.032 85.132 123.96 85.576 123.96 86.068L123.852 85.33C123.912 84.79 124.056 84.274 124.284 83.782C124.524 83.278 124.86 82.876 125.292 82.576C125.736 82.264 126.294 82.108 126.966 82.108C127.818 82.108 128.49 82.36 128.982 82.864C129.486 83.356 129.738 84.064 129.738 84.988V91ZM123.96 91H122.412V78.94H123.96V91ZM135.735 91.18C134.919 91.18 134.193 90.994 133.557 90.622C132.933 90.25 132.441 89.728 132.081 89.056C131.733 88.372 131.559 87.568 131.559 86.644C131.559 85.72 131.733 84.922 132.081 84.25C132.429 83.566 132.909 83.038 133.521 82.666C134.145 82.294 134.853 82.108 135.645 82.108C136.461 82.108 137.163 82.282 137.751 82.63C138.351 82.966 138.807 83.446 139.119 84.07C139.443 84.694 139.605 85.438 139.605 86.302C139.605 86.434 139.599 86.566 139.587 86.698C139.575 86.818 139.557 86.92 139.533 87.004H132.747V85.87H138.597L138.219 86.41C138.219 85.426 137.991 84.682 137.535 84.178C137.079 83.674 136.449 83.422 135.645 83.422C134.853 83.422 134.223 83.686 133.755 84.214C133.299 84.73 133.071 85.51 133.071 86.554V86.752C133.071 87.412 133.179 87.976 133.395 88.444C133.611 88.912 133.917 89.272 134.313 89.524C134.721 89.764 135.195 89.884 135.735 89.884C136.323 89.884 136.797 89.794 137.157 89.614C137.529 89.434 137.823 89.212 138.039 88.948C138.255 88.672 138.417 88.414 138.525 88.174L139.479 89.254C139.155 89.77 138.687 90.22 138.075 90.604C137.463 90.988 136.683 91.18 135.735 91.18ZM143.137 91H141.589V82.288H143.137V91ZM143.137 86.068L143.029 85.33C143.077 84.922 143.167 84.526 143.299 84.142C143.443 83.758 143.629 83.416 143.857 83.116C144.097 82.804 144.385 82.558 144.721 82.378C145.057 82.198 145.441 82.108 145.873 82.108C146.341 82.108 146.761 82.264 147.133 82.576C147.517 82.888 147.709 83.356 147.709 83.98C147.709 84.352 147.667 84.67 147.583 84.934C147.511 85.186 147.439 85.366 147.367 85.474H145.657C145.801 85.342 145.921 85.156 146.017 84.916C146.125 84.676 146.179 84.436 146.179 84.196C146.179 83.944 146.107 83.728 145.963 83.548C145.831 83.356 145.603 83.26 145.279 83.26C144.907 83.26 144.559 83.392 144.235 83.656C143.911 83.92 143.647 84.262 143.443 84.682C143.239 85.102 143.137 85.564 143.137 86.068ZM152.321 91.18C151.721 91.18 151.145 91.09 150.593 90.91C150.041 90.73 149.561 90.466 149.153 90.118C148.757 89.758 148.457 89.308 148.253 88.768L149.387 87.886C149.495 88.21 149.669 88.528 149.909 88.84C150.161 89.14 150.491 89.386 150.899 89.578C151.307 89.77 151.799 89.866 152.375 89.866C152.891 89.866 153.305 89.77 153.617 89.578C153.929 89.374 154.085 89.08 154.085 88.696C154.085 88.3 153.905 88.018 153.545 87.85C153.197 87.682 152.771 87.538 152.267 87.418L151.115 87.148C150.707 87.052 150.305 86.914 149.909 86.734C149.513 86.542 149.183 86.284 148.919 85.96C148.655 85.624 148.523 85.192 148.523 84.664C148.523 83.872 148.805 83.248 149.369 82.792C149.933 82.336 150.689 82.108 151.637 82.108C152.561 82.108 153.329 82.318 153.941 82.738C154.565 83.158 154.997 83.656 155.237 84.232L154.049 85.114C153.833 84.598 153.515 84.19 153.095 83.89C152.687 83.59 152.171 83.44 151.547 83.44C151.091 83.44 150.719 83.536 150.431 83.728C150.143 83.92 149.999 84.202 149.999 84.574C149.999 84.958 150.143 85.24 150.431 85.42C150.731 85.6 151.175 85.762 151.763 85.906L152.879 86.194C153.863 86.422 154.541 86.746 154.913 87.166C155.297 87.574 155.489 88.078 155.489 88.678C155.489 89.254 155.339 89.728 155.039 90.1C154.751 90.46 154.367 90.73 153.887 90.91C153.419 91.09 152.897 91.18 152.321 91.18ZM168.585 91H167.037V85.366C167.037 84.802 166.899 84.34 166.623 83.98C166.359 83.62 165.855 83.44 165.111 83.44C164.547 83.44 164.097 83.56 163.761 83.8C163.425 84.028 163.179 84.34 163.023 84.736C162.879 85.132 162.807 85.576 162.807 86.068L162.699 85.33C162.759 84.79 162.903 84.274 163.131 83.782C163.371 83.278 163.707 82.876 164.139 82.576C164.583 82.264 165.141 82.108 165.813 82.108C166.665 82.108 167.337 82.36 167.829 82.864C168.333 83.356 168.585 84.064 168.585 84.988V91ZM162.807 91H161.259V78.94H162.807V91ZM174.367 91.18C173.563 91.18 172.849 90.994 172.225 90.622C171.613 90.25 171.133 89.722 170.785 89.038C170.437 88.354 170.263 87.556 170.263 86.644C170.263 85.72 170.437 84.922 170.785 84.25C171.133 83.566 171.613 83.038 172.225 82.666C172.849 82.294 173.563 82.108 174.367 82.108C175.171 82.108 175.879 82.294 176.491 82.666C177.115 83.038 177.601 83.566 177.949 84.25C178.309 84.922 178.489 85.72 178.489 86.644C178.489 87.556 178.309 88.354 177.949 89.038C177.601 89.722 177.115 90.25 176.491 90.622C175.879 90.994 175.171 91.18 174.367 91.18ZM174.367 89.866C174.871 89.866 175.309 89.752 175.681 89.524C176.065 89.284 176.365 88.93 176.581 88.462C176.797 87.982 176.905 87.376 176.905 86.644C176.905 85.912 176.797 85.312 176.581 84.844C176.365 84.364 176.065 84.01 175.681 83.782C175.309 83.542 174.871 83.422 174.367 83.422C173.875 83.422 173.437 83.542 173.053 83.782C172.681 84.01 172.387 84.364 172.171 84.844C171.967 85.312 171.865 85.912 171.865 86.644C171.865 87.376 171.967 87.982 172.171 88.462C172.387 88.93 172.681 89.284 173.053 89.524C173.437 89.752 173.875 89.866 174.367 89.866ZM183.362 91H181.328L179.06 82.288H180.806L181.94 87.652L182.354 89.866L182.894 87.652L184.478 82.288H186.404L187.97 87.652L188.528 89.866L188.942 87.652L190.058 82.288H191.804L189.536 91H187.502L186.008 85.906L185.45 83.584L184.856 85.906L183.362 91ZM201.6 91H197.856V89.614H201.348C202.26 89.614 203.034 89.47 203.67 89.182C204.318 88.882 204.81 88.396 205.146 87.724C205.494 87.04 205.668 86.122 205.668 84.97C205.668 83.818 205.494 82.906 205.146 82.234C204.81 81.55 204.318 81.064 203.67 80.776C203.034 80.476 202.26 80.326 201.348 80.326H197.856V78.94H201.6C202.872 78.94 203.928 79.18 204.768 79.66C205.608 80.128 206.238 80.812 206.658 81.712C207.078 82.612 207.288 83.698 207.288 84.97C207.288 86.242 207.078 87.328 206.658 88.228C206.238 89.128 205.608 89.818 204.768 90.298C203.928 90.766 202.872 91 201.6 91ZM198.882 91H197.334V78.94H198.882V91ZM213.149 91.18C212.333 91.18 211.607 90.994 210.971 90.622C210.347 90.25 209.855 89.728 209.495 89.056C209.147 88.372 208.973 87.568 208.973 86.644C208.973 85.72 209.147 84.922 209.495 84.25C209.843 83.566 210.323 83.038 210.935 82.666C211.559 82.294 212.267 82.108 213.059 82.108C213.875 82.108 214.577 82.282 215.165 82.63C215.765 82.966 216.221 83.446 216.533 84.07C216.857 84.694 217.019 85.438 217.019 86.302C217.019 86.434 217.013 86.566 217.001 86.698C216.989 86.818 216.971 86.92 216.947 87.004H210.161V85.87H216.011L215.633 86.41C215.633 85.426 215.405 84.682 214.949 84.178C214.493 83.674 213.863 83.422 213.059 83.422C212.267 83.422 211.637 83.686 211.169 84.214C210.713 84.73 210.485 85.51 210.485 86.554V86.752C210.485 87.412 210.593 87.976 210.809 88.444C211.025 88.912 211.331 89.272 211.727 89.524C212.135 89.764 212.609 89.884 213.149 89.884C213.737 89.884 214.211 89.794 214.571 89.614C214.943 89.434 215.237 89.212 215.453 88.948C215.669 88.672 215.831 88.414 215.939 88.174L216.893 89.254C216.569 89.77 216.101 90.22 215.489 90.604C214.877 90.988 214.097 91.18 213.149 91.18ZM222.887 91.18C222.071 91.18 221.345 90.994 220.709 90.622C220.085 90.25 219.593 89.728 219.233 89.056C218.885 88.372 218.711 87.568 218.711 86.644C218.711 85.72 218.885 84.922 219.233 84.25C219.581 83.566 220.061 83.038 220.673 82.666C221.297 82.294 222.005 82.108 222.797 82.108C223.613 82.108 224.315 82.282 224.903 82.63C225.503 82.966 225.959 83.446 226.271 84.07C226.595 84.694 226.757 85.438 226.757 86.302C226.757 86.434 226.751 86.566 226.739 86.698C226.727 86.818 226.709 86.92 226.685 87.004H219.899V85.87H225.749L225.371 86.41C225.371 85.426 225.143 84.682 224.687 84.178C224.231 83.674 223.601 83.422 222.797 83.422C222.005 83.422 221.375 83.686 220.907 84.214C220.451 84.73 220.223 85.51 220.223 86.554V86.752C220.223 87.412 220.331 87.976 220.547 88.444C220.763 88.912 221.069 89.272 221.465 89.524C221.873 89.764 222.347 89.884 222.887 89.884C223.475 89.884 223.949 89.794 224.309 89.614C224.681 89.434 224.975 89.212 225.191 88.948C225.407 88.672 225.569 88.414 225.677 88.174L226.631 89.254C226.307 89.77 225.839 90.22 225.227 90.604C224.615 90.988 223.835 91.18 222.887 91.18ZM232.387 91H230.407L227.257 82.288H228.949L230.677 87.454L231.433 89.848L232.171 87.454L233.881 82.288H235.555L232.387 91ZM238.042 91H236.494V82.288H238.042V91ZM238.042 86.068L237.934 85.33C237.982 84.922 238.072 84.526 238.204 84.142C238.348 83.758 238.534 83.416 238.762 83.116C239.002 82.804 239.29 82.558 239.626 82.378C239.962 82.198 240.346 82.108 240.778 82.108C241.246 82.108 241.666 82.264 242.038 82.576C242.422 82.888 242.614 83.356 242.614 83.98C242.614 84.352 242.572 84.67 242.488 84.934C242.416 85.186 242.344 85.366 242.272 85.474H240.562C240.706 85.342 240.826 85.156 240.922 84.916C241.03 84.676 241.084 84.436 241.084 84.196C241.084 83.944 241.012 83.728 240.868 83.548C240.736 83.356 240.508 83.26 240.184 83.26C239.812 83.26 239.464 83.392 239.14 83.656C238.816 83.92 238.552 84.262 238.348 84.682C238.144 85.102 238.042 85.564 238.042 86.068ZM260.391 91H258.843V85.348C258.843 84.7 258.687 84.22 258.375 83.908C258.063 83.596 257.583 83.44 256.935 83.44C256.491 83.44 256.125 83.56 255.837 83.8C255.561 84.028 255.351 84.34 255.207 84.736C255.063 85.132 254.991 85.576 254.991 86.068L254.865 85.33C254.925 84.79 255.069 84.274 255.297 83.782C255.525 83.278 255.843 82.876 256.251 82.576C256.671 82.264 257.187 82.108 257.799 82.108C258.651 82.108 259.293 82.36 259.725 82.864C260.169 83.356 260.391 84.058 260.391 84.97V91ZM249.573 91H248.025V82.288H249.573V91ZM254.991 91H253.425V85.348C253.425 84.7 253.269 84.22 252.957 83.908C252.657 83.596 252.177 83.44 251.517 83.44C251.073 83.44 250.707 83.56 250.419 83.8C250.143 84.028 249.933 84.34 249.789 84.736C249.645 85.132 249.573 85.576 249.573 86.068L249.465 85.33C249.525 84.79 249.669 84.274 249.897 83.782C250.125 83.278 250.443 82.876 250.851 82.576C251.271 82.264 251.787 82.108 252.399 82.108C253.251 82.108 253.893 82.36 254.325 82.864C254.769 83.356 254.991 84.058 254.991 84.97V91ZM270.135 91H269.127C268.827 91 268.557 90.946 268.317 90.838C268.089 90.73 267.909 90.556 267.777 90.316C267.645 90.076 267.579 89.752 267.579 89.344V85.726L267.525 85.474C267.525 84.922 267.387 84.46 267.111 84.088C266.847 83.716 266.349 83.53 265.617 83.53C264.993 83.53 264.471 83.692 264.051 84.016C263.643 84.328 263.325 84.724 263.097 85.204L262.035 84.106C262.215 83.806 262.473 83.506 262.809 83.206C263.157 82.894 263.583 82.636 264.087 82.432C264.591 82.216 265.161 82.108 265.797 82.108C266.865 82.108 267.681 82.408 268.245 83.008C268.809 83.596 269.091 84.412 269.091 85.456V89.038C269.091 89.242 269.133 89.386 269.217 89.47C269.301 89.542 269.421 89.578 269.577 89.578H270.135V91ZM264.555 91.18C263.823 91.18 263.253 90.994 262.845 90.622C262.449 90.238 262.251 89.758 262.251 89.182C262.251 88.594 262.449 88.108 262.845 87.724C263.241 87.328 263.751 86.992 264.375 86.716L267.795 85.186L268.029 86.23L265.023 87.634C264.615 87.838 264.315 88.042 264.123 88.246C263.931 88.438 263.835 88.666 263.835 88.93C263.835 89.23 263.937 89.464 264.141 89.632C264.345 89.8 264.651 89.884 265.059 89.884C265.431 89.884 265.767 89.83 266.067 89.722C266.379 89.602 266.643 89.44 266.859 89.236C267.087 89.032 267.261 88.798 267.381 88.534C267.513 88.27 267.579 87.976 267.579 87.652L267.633 88.48C267.561 88.888 267.405 89.302 267.165 89.722C266.925 90.13 266.589 90.478 266.157 90.766C265.725 91.042 265.191 91.18 264.555 91.18ZM273.497 91H271.949V78.94H273.497V85.078L273.461 86.284L274.739 85.024L277.601 82.288H279.563L275.243 86.374L275.081 86.464L273.497 87.958V91ZM279.617 91H277.727L274.649 86.248L275.729 85.294L279.617 91ZM284.217 91.18C283.401 91.18 282.675 90.994 282.039 90.622C281.415 90.25 280.923 89.728 280.563 89.056C280.215 88.372 280.041 87.568 280.041 86.644C280.041 85.72 280.215 84.922 280.563 84.25C280.911 83.566 281.391 83.038 282.003 82.666C282.627 82.294 283.335 82.108 284.127 82.108C284.943 82.108 285.645 82.282 286.233 82.63C286.833 82.966 287.289 83.446 287.601 84.07C287.925 84.694 288.087 85.438 288.087 86.302C288.087 86.434 288.081 86.566 288.069 86.698C288.057 86.818 288.039 86.92 288.015 87.004H281.229V85.87H287.079L286.701 86.41C286.701 85.426 286.473 84.682 286.017 84.178C285.561 83.674 284.931 83.422 284.127 83.422C283.335 83.422 282.705 83.686 282.237 84.214C281.781 84.73 281.553 85.51 281.553 86.554V86.752C281.553 87.412 281.661 87.976 281.877 88.444C282.093 88.912 282.399 89.272 282.795 89.524C283.203 89.764 283.677 89.884 284.217 89.884C284.805 89.884 285.279 89.794 285.639 89.614C286.011 89.434 286.305 89.212 286.521 88.948C286.737 88.672 286.899 88.414 287.007 88.174L287.961 89.254C287.637 89.77 287.169 90.22 286.557 90.604C285.945 90.988 285.165 91.18 284.217 91.18ZM293.315 91.18C292.715 91.18 292.139 91.09 291.587 90.91C291.035 90.73 290.555 90.466 290.147 90.118C289.751 89.758 289.451 89.308 289.247 88.768L290.381 87.886C290.489 88.21 290.663 88.528 290.903 88.84C291.155 89.14 291.485 89.386 291.893 89.578C292.301 89.77 292.793 89.866 293.369 89.866C293.885 89.866 294.299 89.77 294.611 89.578C294.923 89.374 295.079 89.08 295.079 88.696C295.079 88.3 294.899 88.018 294.539 87.85C294.191 87.682 293.765 87.538 293.261 87.418L292.109 87.148C291.701 87.052 291.299 86.914 290.903 86.734C290.507 86.542 290.177 86.284 289.913 85.96C289.649 85.624 289.517 85.192 289.517 84.664C289.517 83.872 289.799 83.248 290.363 82.792C290.927 82.336 291.683 82.108 292.631 82.108C293.555 82.108 294.323 82.318 294.935 82.738C295.559 83.158 295.991 83.656 296.231 84.232L295.043 85.114C294.827 84.598 294.509 84.19 294.089 83.89C293.681 83.59 293.165 83.44 292.541 83.44C292.085 83.44 291.713 83.536 291.425 83.728C291.137 83.92 290.993 84.202 290.993 84.574C290.993 84.958 291.137 85.24 291.425 85.42C291.725 85.6 292.169 85.762 292.757 85.906L293.873 86.194C294.857 86.422 295.535 86.746 295.907 87.166C296.291 87.574 296.483 88.078 296.483 88.678C296.483 89.254 296.333 89.728 296.033 90.1C295.745 90.46 295.361 90.73 294.881 90.91C294.413 91.09 293.891 91.18 293.315 91.18ZM305.295 94.528C304.179 94.528 303.291 94.354 302.631 94.006C301.983 93.67 301.659 93.214 301.659 92.638C301.659 92.362 301.725 92.122 301.857 91.918C302.001 91.726 302.181 91.558 302.397 91.414C302.625 91.27 302.847 91.156 303.063 91.072C302.799 90.988 302.589 90.844 302.433 90.64C302.289 90.436 302.217 90.19 302.217 89.902C302.217 89.674 302.271 89.44 302.379 89.2C302.499 88.96 302.661 88.72 302.865 88.48C303.081 88.228 303.339 87.988 303.639 87.76L303.999 87.922C303.891 88.066 303.777 88.24 303.657 88.444C303.549 88.648 303.495 88.852 303.495 89.056C303.495 89.284 303.573 89.458 303.729 89.578C303.885 89.698 304.191 89.758 304.647 89.758H307.275C308.067 89.758 308.691 89.92 309.147 90.244C309.615 90.556 309.849 91.048 309.849 91.72C309.849 92.26 309.669 92.74 309.309 93.16C308.961 93.592 308.445 93.928 307.761 94.168C307.089 94.408 306.267 94.528 305.295 94.528ZM305.295 93.286C306.291 93.286 307.053 93.166 307.581 92.926C308.121 92.686 308.391 92.35 308.391 91.918C308.391 91.63 308.283 91.42 308.067 91.288C307.851 91.168 307.521 91.108 307.077 91.108H303.513C303.381 91.24 303.249 91.39 303.117 91.558C302.985 91.738 302.919 91.936 302.919 92.152C302.919 92.5 303.117 92.776 303.513 92.98C303.921 93.184 304.515 93.286 305.295 93.286ZM305.655 88.336C304.971 88.336 304.371 88.204 303.855 87.94C303.351 87.676 302.949 87.31 302.649 86.842C302.361 86.362 302.217 85.822 302.217 85.222C302.217 84.61 302.361 84.07 302.649 83.602C302.949 83.134 303.351 82.768 303.855 82.504C304.371 82.24 304.971 82.108 305.655 82.108C306.339 82.108 306.939 82.24 307.455 82.504C307.983 82.768 308.385 83.134 308.661 83.602C308.949 84.07 309.093 84.61 309.093 85.222C309.093 85.822 308.949 86.362 308.661 86.842C308.385 87.31 307.983 87.676 307.455 87.94C306.939 88.204 306.339 88.336 305.655 88.336ZM305.655 87.13C306.195 87.13 306.651 86.962 307.023 86.626C307.395 86.29 307.581 85.822 307.581 85.222C307.581 84.622 307.395 84.154 307.023 83.818C306.651 83.482 306.195 83.314 305.655 83.314C305.115 83.314 304.659 83.482 304.287 83.818C303.915 84.154 303.729 84.622 303.729 85.222C303.729 85.822 303.915 86.29 304.287 86.626C304.659 86.962 305.115 87.13 305.655 87.13ZM309.363 80.884L307.563 82.9L307.185 82.504L307.743 80.308L309.363 80.884ZM314.909 91.18C314.093 91.18 313.367 90.994 312.731 90.622C312.107 90.25 311.615 89.728 311.255 89.056C310.907 88.372 310.733 87.568 310.733 86.644C310.733 85.72 310.907 84.922 311.255 84.25C311.603 83.566 312.083 83.038 312.695 82.666C313.319 82.294 314.027 82.108 314.819 82.108C315.635 82.108 316.337 82.282 316.925 82.63C317.525 82.966 317.981 83.446 318.293 84.07C318.617 84.694 318.779 85.438 318.779 86.302C318.779 86.434 318.773 86.566 318.761 86.698C318.749 86.818 318.731 86.92 318.707 87.004H311.921V85.87H317.771L317.393 86.41C317.393 85.426 317.165 84.682 316.709 84.178C316.253 83.674 315.623 83.422 314.819 83.422C314.027 83.422 313.397 83.686 312.929 84.214C312.473 84.73 312.245 85.51 312.245 86.554V86.752C312.245 87.412 312.353 87.976 312.569 88.444C312.785 88.912 313.091 89.272 313.487 89.524C313.895 89.764 314.369 89.884 314.909 89.884C315.497 89.884 315.971 89.794 316.331 89.614C316.703 89.434 316.997 89.212 317.213 88.948C317.429 88.672 317.591 88.414 317.699 88.174L318.653 89.254C318.329 89.77 317.861 90.22 317.249 90.604C316.637 90.988 315.857 91.18 314.909 91.18ZM323.539 91.198C323.059 91.198 322.639 91.102 322.279 90.91C321.919 90.706 321.637 90.424 321.433 90.064C321.229 89.704 321.127 89.272 321.127 88.768V81.172L322.675 80.02V88.3C322.675 88.852 322.789 89.224 323.017 89.416C323.245 89.596 323.533 89.686 323.881 89.686C324.265 89.686 324.589 89.56 324.853 89.308C325.117 89.044 325.309 88.774 325.429 88.498L325.951 90.046C325.759 90.346 325.459 90.616 325.051 90.856C324.643 91.084 324.139 91.198 323.539 91.198ZM325.537 83.512H319.705V82.288H325.537V83.512ZM329.656 91.198C329.176 91.198 328.756 91.102 328.396 90.91C328.036 90.706 327.754 90.424 327.55 90.064C327.346 89.704 327.244 89.272 327.244 88.768V81.172L328.792 80.02V88.3C328.792 88.852 328.906 89.224 329.134 89.416C329.362 89.596 329.65 89.686 329.998 89.686C330.382 89.686 330.706 89.56 330.97 89.308C331.234 89.044 331.426 88.774 331.546 88.498L332.068 90.046C331.876 90.346 331.576 90.616 331.168 90.856C330.76 91.084 330.256 91.198 329.656 91.198ZM331.654 83.512H325.822V82.288H331.654V83.512ZM335.161 80.884H333.613V78.94H335.161V80.884ZM335.161 91H333.613V82.288H335.161V91ZM344.859 91H343.311V85.366C343.311 84.802 343.173 84.34 342.897 83.98C342.633 83.62 342.129 83.44 341.385 83.44C340.821 83.44 340.371 83.56 340.035 83.8C339.699 84.028 339.453 84.34 339.297 84.736C339.153 85.132 339.081 85.576 339.081 86.068L338.973 85.33C339.033 84.79 339.177 84.274 339.405 83.782C339.645 83.278 339.981 82.876 340.413 82.576C340.857 82.264 341.415 82.108 342.087 82.108C342.939 82.108 343.611 82.36 344.103 82.864C344.607 83.356 344.859 84.064 344.859 84.988V91ZM339.081 91H337.533V82.288H339.081V91ZM350.12 94.528C349.004 94.528 348.116 94.354 347.456 94.006C346.808 93.67 346.484 93.214 346.484 92.638C346.484 92.362 346.55 92.122 346.682 91.918C346.826 91.726 347.006 91.558 347.222 91.414C347.45 91.27 347.672 91.156 347.888 91.072C347.624 90.988 347.414 90.844 347.258 90.64C347.114 90.436 347.042 90.19 347.042 89.902C347.042 89.674 347.096 89.44 347.204 89.2C347.324 88.96 347.486 88.72 347.69 88.48C347.906 88.228 348.164 87.988 348.464 87.76L348.824 87.922C348.716 88.066 348.602 88.24 348.482 88.444C348.374 88.648 348.32 88.852 348.32 89.056C348.32 89.284 348.398 89.458 348.554 89.578C348.71 89.698 349.016 89.758 349.472 89.758H352.1C352.892 89.758 353.516 89.92 353.972 90.244C354.44 90.556 354.674 91.048 354.674 91.72C354.674 92.26 354.494 92.74 354.134 93.16C353.786 93.592 353.27 93.928 352.586 94.168C351.914 94.408 351.092 94.528 350.12 94.528ZM350.12 93.286C351.116 93.286 351.878 93.166 352.406 92.926C352.946 92.686 353.216 92.35 353.216 91.918C353.216 91.63 353.108 91.42 352.892 91.288C352.676 91.168 352.346 91.108 351.902 91.108H348.338C348.206 91.24 348.074 91.39 347.942 91.558C347.81 91.738 347.744 91.936 347.744 92.152C347.744 92.5 347.942 92.776 348.338 92.98C348.746 93.184 349.34 93.286 350.12 93.286ZM350.48 88.336C349.796 88.336 349.196 88.204 348.68 87.94C348.176 87.676 347.774 87.31 347.474 86.842C347.186 86.362 347.042 85.822 347.042 85.222C347.042 84.61 347.186 84.07 347.474 83.602C347.774 83.134 348.176 82.768 348.68 82.504C349.196 82.24 349.796 82.108 350.48 82.108C351.164 82.108 351.764 82.24 352.28 82.504C352.808 82.768 353.21 83.134 353.486 83.602C353.774 84.07 353.918 84.61 353.918 85.222C353.918 85.822 353.774 86.362 353.486 86.842C353.21 87.31 352.808 87.676 352.28 87.94C351.764 88.204 351.164 88.336 350.48 88.336ZM350.48 87.13C351.02 87.13 351.476 86.962 351.848 86.626C352.22 86.29 352.406 85.822 352.406 85.222C352.406 84.622 352.22 84.154 351.848 83.818C351.476 83.482 351.02 83.314 350.48 83.314C349.94 83.314 349.484 83.482 349.112 83.818C348.74 84.154 348.554 84.622 348.554 85.222C348.554 85.822 348.74 86.29 349.112 86.626C349.484 86.962 349.94 87.13 350.48 87.13ZM354.188 80.884L352.388 82.9L352.01 82.504L352.568 80.308L354.188 80.884ZM361.686 80.884H360.138V78.94H361.686V80.884ZM361.686 91H360.138V82.288H361.686V91ZM371.384 91H369.836V85.366C369.836 84.802 369.698 84.34 369.422 83.98C369.158 83.62 368.654 83.44 367.91 83.44C367.346 83.44 366.896 83.56 366.56 83.8C366.224 84.028 365.978 84.34 365.822 84.736C365.678 85.132 365.606 85.576 365.606 86.068L365.498 85.33C365.558 84.79 365.702 84.274 365.93 83.782C366.17 83.278 366.506 82.876 366.938 82.576C367.382 82.264 367.94 82.108 368.612 82.108C369.464 82.108 370.136 82.36 370.628 82.864C371.132 83.356 371.384 84.064 371.384 84.988V91ZM365.606 91H364.058V82.288H365.606V91ZM375.712 91H374.146V81.478C374.146 80.89 374.26 80.398 374.488 80.002C374.728 79.594 375.052 79.288 375.46 79.084C375.88 78.868 376.36 78.76 376.9 78.76C377.572 78.76 378.112 78.904 378.52 79.192C378.94 79.48 379.24 79.762 379.42 80.038L378.556 81.154C378.388 80.842 378.16 80.584 377.872 80.38C377.596 80.164 377.266 80.056 376.882 80.056C376.474 80.056 376.174 80.17 375.982 80.398C375.802 80.614 375.712 80.932 375.712 81.352V82.468V91ZM378.52 83.512H372.724V82.288H378.52V83.512ZM383.107 91.18C382.303 91.18 381.589 90.994 380.965 90.622C380.353 90.25 379.873 89.722 379.525 89.038C379.177 88.354 379.003 87.556 379.003 86.644C379.003 85.72 379.177 84.922 379.525 84.25C379.873 83.566 380.353 83.038 380.965 82.666C381.589 82.294 382.303 82.108 383.107 82.108C383.911 82.108 384.619 82.294 385.231 82.666C385.855 83.038 386.341 83.566 386.689 84.25C387.049 84.922 387.229 85.72 387.229 86.644C387.229 87.556 387.049 88.354 386.689 89.038C386.341 89.722 385.855 90.25 385.231 90.622C384.619 90.994 383.911 91.18 383.107 91.18ZM383.107 89.866C383.611 89.866 384.049 89.752 384.421 89.524C384.805 89.284 385.105 88.93 385.321 88.462C385.537 87.982 385.645 87.376 385.645 86.644C385.645 85.912 385.537 85.312 385.321 84.844C385.105 84.364 384.805 84.01 384.421 83.782C384.049 83.542 383.611 83.422 383.107 83.422C382.615 83.422 382.177 83.542 381.793 83.782C381.421 84.01 381.127 84.364 380.911 84.844C380.707 85.312 380.605 85.912 380.605 86.644C380.605 87.376 380.707 87.982 380.911 88.462C381.127 88.93 381.421 89.284 381.793 89.524C382.177 89.752 382.615 89.866 383.107 89.866ZM390.743 91H389.195V82.288H390.743V91ZM390.743 86.068L390.635 85.33C390.683 84.922 390.773 84.526 390.905 84.142C391.049 83.758 391.235 83.416 391.463 83.116C391.703 82.804 391.991 82.558 392.327 82.378C392.663 82.198 393.047 82.108 393.479 82.108C393.947 82.108 394.367 82.264 394.739 82.576C395.123 82.888 395.315 83.356 395.315 83.98C395.315 84.352 395.273 84.67 395.189 84.934C395.117 85.186 395.045 85.366 394.973 85.474H393.263C393.407 85.342 393.527 85.156 393.623 84.916C393.731 84.676 393.785 84.436 393.785 84.196C393.785 83.944 393.713 83.728 393.569 83.548C393.437 83.356 393.209 83.26 392.885 83.26C392.513 83.26 392.165 83.392 391.841 83.656C391.517 83.92 391.253 84.262 391.049 84.682C390.845 85.102 390.743 85.564 390.743 86.068ZM409.032 91H407.484V85.348C407.484 84.7 407.328 84.22 407.016 83.908C406.704 83.596 406.224 83.44 405.576 83.44C405.132 83.44 404.766 83.56 404.478 83.8C404.202 84.028 403.992 84.34 403.848 84.736C403.704 85.132 403.632 85.576 403.632 86.068L403.506 85.33C403.566 84.79 403.71 84.274 403.938 83.782C404.166 83.278 404.484 82.876 404.892 82.576C405.312 82.264 405.828 82.108 406.44 82.108C407.292 82.108 407.934 82.36 408.366 82.864C408.81 83.356 409.032 84.058 409.032 84.97V91ZM398.214 91H396.666V82.288H398.214V91ZM403.632 91H402.066V85.348C402.066 84.7 401.91 84.22 401.598 83.908C401.298 83.596 400.818 83.44 400.158 83.44C399.714 83.44 399.348 83.56 399.06 83.8C398.784 84.028 398.574 84.34 398.43 84.736C398.286 85.132 398.214 85.576 398.214 86.068L398.106 85.33C398.166 84.79 398.31 84.274 398.538 83.782C398.766 83.278 399.084 82.876 399.492 82.576C399.912 82.264 400.428 82.108 401.04 82.108C401.892 82.108 402.534 82.36 402.966 82.864C403.41 83.356 403.632 84.058 403.632 84.97V91ZM418.776 91H417.768C417.468 91 417.198 90.946 416.958 90.838C416.73 90.73 416.55 90.556 416.418 90.316C416.286 90.076 416.22 89.752 416.22 89.344V85.726L416.166 85.474C416.166 84.922 416.028 84.46 415.752 84.088C415.488 83.716 414.99 83.53 414.258 83.53C413.634 83.53 413.112 83.692 412.692 84.016C412.284 84.328 411.966 84.724 411.738 85.204L410.676 84.106C410.856 83.806 411.114 83.506 411.45 83.206C411.798 82.894 412.224 82.636 412.728 82.432C413.232 82.216 413.802 82.108 414.438 82.108C415.506 82.108 416.322 82.408 416.886 83.008C417.45 83.596 417.732 84.412 417.732 85.456V89.038C417.732 89.242 417.774 89.386 417.858 89.47C417.942 89.542 418.062 89.578 418.218 89.578H418.776V91ZM413.196 91.18C412.464 91.18 411.894 90.994 411.486 90.622C411.09 90.238 410.892 89.758 410.892 89.182C410.892 88.594 411.09 88.108 411.486 87.724C411.882 87.328 412.392 86.992 413.016 86.716L416.436 85.186L416.67 86.23L413.664 87.634C413.256 87.838 412.956 88.042 412.764 88.246C412.572 88.438 412.476 88.666 412.476 88.93C412.476 89.23 412.578 89.464 412.782 89.632C412.986 89.8 413.292 89.884 413.7 89.884C414.072 89.884 414.408 89.83 414.708 89.722C415.02 89.602 415.284 89.44 415.5 89.236C415.728 89.032 415.902 88.798 416.022 88.534C416.154 88.27 416.22 87.976 416.22 87.652L416.274 88.48C416.202 88.888 416.046 89.302 415.806 89.722C415.566 90.13 415.23 90.478 414.798 90.766C414.366 91.042 413.832 91.18 413.196 91.18ZM423.259 91.198C422.779 91.198 422.359 91.102 421.999 90.91C421.639 90.706 421.357 90.424 421.153 90.064C420.949 89.704 420.847 89.272 420.847 88.768V81.172L422.395 80.02V88.3C422.395 88.852 422.509 89.224 422.737 89.416C422.965 89.596 423.253 89.686 423.601 89.686C423.985 89.686 424.309 89.56 424.573 89.308C424.837 89.044 425.029 88.774 425.149 88.498L425.671 90.046C425.479 90.346 425.179 90.616 424.771 90.856C424.363 91.084 423.859 91.198 423.259 91.198ZM425.257 83.512H419.425V82.288H425.257V83.512ZM428.764 80.884H427.216V78.94H428.764V80.884ZM428.764 91H427.216V82.288H428.764V91ZM434.628 91.18C433.824 91.18 433.11 90.994 432.486 90.622C431.874 90.25 431.394 89.722 431.046 89.038C430.698 88.354 430.524 87.556 430.524 86.644C430.524 85.72 430.698 84.922 431.046 84.25C431.394 83.566 431.874 83.038 432.486 82.666C433.11 82.294 433.824 82.108 434.628 82.108C435.432 82.108 436.14 82.294 436.752 82.666C437.376 83.038 437.862 83.566 438.21 84.25C438.57 84.922 438.75 85.72 438.75 86.644C438.75 87.556 438.57 88.354 438.21 89.038C437.862 89.722 437.376 90.25 436.752 90.622C436.14 90.994 435.432 91.18 434.628 91.18ZM434.628 89.866C435.132 89.866 435.57 89.752 435.942 89.524C436.326 89.284 436.626 88.93 436.842 88.462C437.058 87.982 437.166 87.376 437.166 86.644C437.166 85.912 437.058 85.312 436.842 84.844C436.626 84.364 436.326 84.01 435.942 83.782C435.57 83.542 435.132 83.422 434.628 83.422C434.136 83.422 433.698 83.542 433.314 83.782C432.942 84.01 432.648 84.364 432.432 84.844C432.228 85.312 432.126 85.912 432.126 86.644C432.126 87.376 432.228 87.982 432.432 88.462C432.648 88.93 432.942 89.284 433.314 89.524C433.698 89.752 434.136 89.866 434.628 89.866ZM448.042 91H446.494V85.366C446.494 84.802 446.356 84.34 446.08 83.98C445.816 83.62 445.312 83.44 444.568 83.44C444.004 83.44 443.554 83.56 443.218 83.8C442.882 84.028 442.636 84.34 442.48 84.736C442.336 85.132 442.264 85.576 442.264 86.068L442.156 85.33C442.216 84.79 442.36 84.274 442.588 83.782C442.828 83.278 443.164 82.876 443.596 82.576C444.04 82.264 444.598 82.108 445.27 82.108C446.122 82.108 446.794 82.36 447.286 82.864C447.79 83.356 448.042 84.064 448.042 84.988V91ZM442.264 91H440.716V82.288H442.264V91ZM456.572 91H455.006V81.478C455.006 80.89 455.12 80.398 455.348 80.002C455.588 79.594 455.912 79.288 456.32 79.084C456.74 78.868 457.22 78.76 457.76 78.76C458.432 78.76 458.972 78.904 459.38 79.192C459.8 79.48 460.1 79.762 460.28 80.038L459.416 81.154C459.248 80.842 459.02 80.584 458.732 80.38C458.456 80.164 458.126 80.056 457.742 80.056C457.334 80.056 457.034 80.17 456.842 80.398C456.662 80.614 456.572 80.932 456.572 81.352V82.468V91ZM459.38 83.512H453.584V82.288H459.38V83.512ZM468.153 91H467.145C466.845 91 466.575 90.946 466.335 90.838C466.107 90.73 465.927 90.556 465.795 90.316C465.663 90.076 465.597 89.752 465.597 89.344V85.726L465.543 85.474C465.543 84.922 465.405 84.46 465.129 84.088C464.865 83.716 464.367 83.53 463.635 83.53C463.011 83.53 462.489 83.692 462.069 84.016C461.661 84.328 461.343 84.724 461.115 85.204L460.053 84.106C460.233 83.806 460.491 83.506 460.827 83.206C461.175 82.894 461.601 82.636 462.105 82.432C462.609 82.216 463.179 82.108 463.815 82.108C464.883 82.108 465.699 82.408 466.263 83.008C466.827 83.596 467.109 84.412 467.109 85.456V89.038C467.109 89.242 467.151 89.386 467.235 89.47C467.319 89.542 467.439 89.578 467.595 89.578H468.153V91ZM462.573 91.18C461.841 91.18 461.271 90.994 460.863 90.622C460.467 90.238 460.269 89.758 460.269 89.182C460.269 88.594 460.467 88.108 460.863 87.724C461.259 87.328 461.769 86.992 462.393 86.716L465.813 85.186L466.047 86.23L463.041 87.634C462.633 87.838 462.333 88.042 462.141 88.246C461.949 88.438 461.853 88.666 461.853 88.93C461.853 89.23 461.955 89.464 462.159 89.632C462.363 89.8 462.669 89.884 463.077 89.884C463.449 89.884 463.785 89.83 464.085 89.722C464.397 89.602 464.661 89.44 464.877 89.236C465.105 89.032 465.279 88.798 465.399 88.534C465.531 88.27 465.597 87.976 465.597 87.652L465.651 88.48C465.579 88.888 465.423 89.302 465.183 89.722C464.943 90.13 464.607 90.478 464.175 90.766C463.743 91.042 463.209 91.18 462.573 91.18ZM473.087 91.18C472.487 91.18 471.911 91.09 471.359 90.91C470.807 90.73 470.327 90.466 469.919 90.118C469.523 89.758 469.223 89.308 469.019 88.768L470.153 87.886C470.261 88.21 470.435 88.528 470.675 88.84C470.927 89.14 471.257 89.386 471.665 89.578C472.073 89.77 472.565 89.866 473.141 89.866C473.657 89.866 474.071 89.77 474.383 89.578C474.695 89.374 474.851 89.08 474.851 88.696C474.851 88.3 474.671 88.018 474.311 87.85C473.963 87.682 473.537 87.538 473.033 87.418L471.881 87.148C471.473 87.052 471.071 86.914 470.675 86.734C470.279 86.542 469.949 86.284 469.685 85.96C469.421 85.624 469.289 85.192 469.289 84.664C469.289 83.872 469.571 83.248 470.135 82.792C470.699 82.336 471.455 82.108 472.403 82.108C473.327 82.108 474.095 82.318 474.707 82.738C475.331 83.158 475.763 83.656 476.003 84.232L474.815 85.114C474.599 84.598 474.281 84.19 473.861 83.89C473.453 83.59 472.937 83.44 472.313 83.44C471.857 83.44 471.485 83.536 471.197 83.728C470.909 83.92 470.765 84.202 470.765 84.574C470.765 84.958 470.909 85.24 471.197 85.42C471.497 85.6 471.941 85.762 472.529 85.906L473.645 86.194C474.629 86.422 475.307 86.746 475.679 87.166C476.063 87.574 476.255 88.078 476.255 88.678C476.255 89.254 476.105 89.728 475.805 90.1C475.517 90.46 475.133 90.73 474.653 90.91C474.185 91.09 473.663 91.18 473.087 91.18ZM480.792 91.198C480.312 91.198 479.892 91.102 479.532 90.91C479.172 90.706 478.89 90.424 478.686 90.064C478.482 89.704 478.38 89.272 478.38 88.768V81.172L479.928 80.02V88.3C479.928 88.852 480.042 89.224 480.27 89.416C480.498 89.596 480.786 89.686 481.134 89.686C481.518 89.686 481.842 89.56 482.106 89.308C482.37 89.044 482.562 88.774 482.682 88.498L483.204 90.046C483.012 90.346 482.712 90.616 482.304 90.856C481.896 91.084 481.392 91.198 480.792 91.198ZM482.79 83.512H476.958V82.288H482.79V83.512ZM485.104 92.836L484.762 91.972C485.062 91.924 485.284 91.858 485.428 91.774C485.584 91.69 485.662 91.516 485.662 91.252V91H484.78V88.66H486.67V91C486.67 91.528 486.562 91.948 486.346 92.26C486.142 92.572 485.728 92.764 485.104 92.836ZM496.184 91.18C495.584 91.18 495.008 91.09 494.456 90.91C493.904 90.73 493.424 90.466 493.016 90.118C492.62 89.758 492.32 89.308 492.116 88.768L493.25 87.886C493.358 88.21 493.532 88.528 493.772 88.84C494.024 89.14 494.354 89.386 494.762 89.578C495.17 89.77 495.662 89.866 496.238 89.866C496.754 89.866 497.168 89.77 497.48 89.578C497.792 89.374 497.948 89.08 497.948 88.696C497.948 88.3 497.768 88.018 497.408 87.85C497.06 87.682 496.634 87.538 496.13 87.418L494.978 87.148C494.57 87.052 494.168 86.914 493.772 86.734C493.376 86.542 493.046 86.284 492.782 85.96C492.518 85.624 492.386 85.192 492.386 84.664C492.386 83.872 492.668 83.248 493.232 82.792C493.796 82.336 494.552 82.108 495.5 82.108C496.424 82.108 497.192 82.318 497.804 82.738C498.428 83.158 498.86 83.656 499.1 84.232L497.912 85.114C497.696 84.598 497.378 84.19 496.958 83.89C496.55 83.59 496.034 83.44 495.41 83.44C494.954 83.44 494.582 83.536 494.294 83.728C494.006 83.92 493.862 84.202 493.862 84.574C493.862 84.958 494.006 85.24 494.294 85.42C494.594 85.6 495.038 85.762 495.626 85.906L496.742 86.194C497.726 86.422 498.404 86.746 498.776 87.166C499.16 87.574 499.352 88.078 499.352 88.678C499.352 89.254 499.202 89.728 498.902 90.1C498.614 90.46 498.23 90.73 497.75 90.91C497.282 91.09 496.76 91.18 496.184 91.18ZM504.7 91.18C503.884 91.18 503.158 90.994 502.522 90.622C501.898 90.25 501.406 89.728 501.046 89.056C500.698 88.372 500.524 87.568 500.524 86.644C500.524 85.72 500.698 84.922 501.046 84.25C501.394 83.566 501.874 83.038 502.486 82.666C503.11 82.294 503.818 82.108 504.61 82.108C505.426 82.108 506.128 82.282 506.716 82.63C507.316 82.966 507.772 83.446 508.084 84.07C508.408 84.694 508.57 85.438 508.57 86.302C508.57 86.434 508.564 86.566 508.552 86.698C508.54 86.818 508.522 86.92 508.498 87.004H501.712V85.87H507.562L507.184 86.41C507.184 85.426 506.956 84.682 506.5 84.178C506.044 83.674 505.414 83.422 504.61 83.422C503.818 83.422 503.188 83.686 502.72 84.214C502.264 84.73 502.036 85.51 502.036 86.554V86.752C502.036 87.412 502.144 87.976 502.36 88.444C502.576 88.912 502.882 89.272 503.278 89.524C503.686 89.764 504.16 89.884 504.7 89.884C505.288 89.884 505.762 89.794 506.122 89.614C506.494 89.434 506.788 89.212 507.004 88.948C507.22 88.672 507.382 88.414 507.49 88.174L508.444 89.254C508.12 89.77 507.652 90.22 507.04 90.604C506.428 90.988 505.648 91.18 504.7 91.18ZM517.987 91H516.979C516.679 91 516.409 90.946 516.169 90.838C515.941 90.73 515.761 90.556 515.629 90.316C515.497 90.076 515.431 89.752 515.431 89.344V85.726L515.377 85.474C515.377 84.922 515.239 84.46 514.963 84.088C514.699 83.716 514.201 83.53 513.469 83.53C512.845 83.53 512.323 83.692 511.903 84.016C511.495 84.328 511.177 84.724 510.949 85.204L509.887 84.106C510.067 83.806 510.325 83.506 510.661 83.206C511.009 82.894 511.435 82.636 511.939 82.432C512.443 82.216 513.013 82.108 513.649 82.108C514.717 82.108 515.533 82.408 516.097 83.008C516.661 83.596 516.943 84.412 516.943 85.456V89.038C516.943 89.242 516.985 89.386 517.069 89.47C517.153 89.542 517.273 89.578 517.429 89.578H517.987V91ZM512.407 91.18C511.675 91.18 511.105 90.994 510.697 90.622C510.301 90.238 510.103 89.758 510.103 89.182C510.103 88.594 510.301 88.108 510.697 87.724C511.093 87.328 511.603 86.992 512.227 86.716L515.647 85.186L515.881 86.23L512.875 87.634C512.467 87.838 512.167 88.042 511.975 88.246C511.783 88.438 511.687 88.666 511.687 88.93C511.687 89.23 511.789 89.464 511.993 89.632C512.197 89.8 512.503 89.884 512.911 89.884C513.283 89.884 513.619 89.83 513.919 89.722C514.231 89.602 514.495 89.44 514.711 89.236C514.939 89.032 515.113 88.798 515.233 88.534C515.365 88.27 515.431 87.976 515.431 87.652L515.485 88.48C515.413 88.888 515.257 89.302 515.017 89.722C514.777 90.13 514.441 90.478 514.009 90.766C513.577 91.042 513.043 91.18 512.407 91.18ZM532.166 91H530.618V85.348C530.618 84.7 530.462 84.22 530.15 83.908C529.838 83.596 529.358 83.44 528.71 83.44C528.266 83.44 527.9 83.56 527.612 83.8C527.336 84.028 527.126 84.34 526.982 84.736C526.838 85.132 526.766 85.576 526.766 86.068L526.64 85.33C526.7 84.79 526.844 84.274 527.072 83.782C527.3 83.278 527.618 82.876 528.026 82.576C528.446 82.264 528.962 82.108 529.574 82.108C530.426 82.108 531.068 82.36 531.5 82.864C531.944 83.356 532.166 84.058 532.166 84.97V91ZM521.348 91H519.8V82.288H521.348V91ZM526.766 91H525.2V85.348C525.2 84.7 525.044 84.22 524.732 83.908C524.432 83.596 523.952 83.44 523.292 83.44C522.848 83.44 522.482 83.56 522.194 83.8C521.918 84.028 521.708 84.34 521.564 84.736C521.42 85.132 521.348 85.576 521.348 86.068L521.24 85.33C521.3 84.79 521.444 84.274 521.672 83.782C521.9 83.278 522.218 82.876 522.626 82.576C523.046 82.264 523.562 82.108 524.174 82.108C525.026 82.108 525.668 82.36 526.1 82.864C526.544 83.356 526.766 84.058 526.766 84.97V91ZM536.044 91H534.496V78.94H536.044V91ZM542.124 91.18C541.308 91.18 540.582 90.994 539.946 90.622C539.322 90.25 538.83 89.728 538.47 89.056C538.122 88.372 537.948 87.568 537.948 86.644C537.948 85.72 538.122 84.922 538.47 84.25C538.818 83.566 539.298 83.038 539.91 82.666C540.534 82.294 541.242 82.108 542.034 82.108C542.85 82.108 543.552 82.282 544.14 82.63C544.74 82.966 545.196 83.446 545.508 84.07C545.832 84.694 545.994 85.438 545.994 86.302C545.994 86.434 545.988 86.566 545.976 86.698C545.964 86.818 545.946 86.92 545.922 87.004H539.136V85.87H544.986L544.608 86.41C544.608 85.426 544.38 84.682 543.924 84.178C543.468 83.674 542.838 83.422 542.034 83.422C541.242 83.422 540.612 83.686 540.144 84.214C539.688 84.73 539.46 85.51 539.46 86.554V86.752C539.46 87.412 539.568 87.976 539.784 88.444C540 88.912 540.306 89.272 540.702 89.524C541.11 89.764 541.584 89.884 542.124 89.884C542.712 89.884 543.186 89.794 543.546 89.614C543.918 89.434 544.212 89.212 544.428 88.948C544.644 88.672 544.806 88.414 544.914 88.174L545.868 89.254C545.544 89.77 545.076 90.22 544.464 90.604C543.852 90.988 543.072 91.18 542.124 91.18ZM551.221 91.18C550.621 91.18 550.045 91.09 549.493 90.91C548.941 90.73 548.461 90.466 548.053 90.118C547.657 89.758 547.357 89.308 547.153 88.768L548.287 87.886C548.395 88.21 548.569 88.528 548.809 88.84C549.061 89.14 549.391 89.386 549.799 89.578C550.207 89.77 550.699 89.866 551.275 89.866C551.791 89.866 552.205 89.77 552.517 89.578C552.829 89.374 552.985 89.08 552.985 88.696C552.985 88.3 552.805 88.018 552.445 87.85C552.097 87.682 551.671 87.538 551.167 87.418L550.015 87.148C549.607 87.052 549.205 86.914 548.809 86.734C548.413 86.542 548.083 86.284 547.819 85.96C547.555 85.624 547.423 85.192 547.423 84.664C547.423 83.872 547.705 83.248 548.269 82.792C548.833 82.336 549.589 82.108 550.537 82.108C551.461 82.108 552.229 82.318 552.841 82.738C553.465 83.158 553.897 83.656 554.137 84.232L552.949 85.114C552.733 84.598 552.415 84.19 551.995 83.89C551.587 83.59 551.071 83.44 550.447 83.44C549.991 83.44 549.619 83.536 549.331 83.728C549.043 83.92 548.899 84.202 548.899 84.574C548.899 84.958 549.043 85.24 549.331 85.42C549.631 85.6 550.075 85.762 550.663 85.906L551.779 86.194C552.763 86.422 553.441 86.746 553.813 87.166C554.197 87.574 554.389 88.078 554.389 88.678C554.389 89.254 554.239 89.728 553.939 90.1C553.651 90.46 553.267 90.73 552.787 90.91C552.319 91.09 551.797 91.18 551.221 91.18ZM559.378 91.18C558.778 91.18 558.202 91.09 557.65 90.91C557.098 90.73 556.618 90.466 556.21 90.118C555.814 89.758 555.514 89.308 555.31 88.768L556.444 87.886C556.552 88.21 556.726 88.528 556.966 88.84C557.218 89.14 557.548 89.386 557.956 89.578C558.364 89.77 558.856 89.866 559.432 89.866C559.948 89.866 560.362 89.77 560.674 89.578C560.986 89.374 561.142 89.08 561.142 88.696C561.142 88.3 560.962 88.018 560.602 87.85C560.254 87.682 559.828 87.538 559.324 87.418L558.172 87.148C557.764 87.052 557.362 86.914 556.966 86.734C556.57 86.542 556.24 86.284 555.976 85.96C555.712 85.624 555.58 85.192 555.58 84.664C555.58 83.872 555.862 83.248 556.426 82.792C556.99 82.336 557.746 82.108 558.694 82.108C559.618 82.108 560.386 82.318 560.998 82.738C561.622 83.158 562.054 83.656 562.294 84.232L561.106 85.114C560.89 84.598 560.572 84.19 560.152 83.89C559.744 83.59 559.228 83.44 558.604 83.44C558.148 83.44 557.776 83.536 557.488 83.728C557.2 83.92 557.056 84.202 557.056 84.574C557.056 84.958 557.2 85.24 557.488 85.42C557.788 85.6 558.232 85.762 558.82 85.906L559.936 86.194C560.92 86.422 561.598 86.746 561.97 87.166C562.354 87.574 562.546 88.078 562.546 88.678C562.546 89.254 562.396 89.728 562.096 90.1C561.808 90.46 561.424 90.73 560.944 90.91C560.476 91.09 559.954 91.18 559.378 91.18ZM575.696 91H574.688C574.388 91 574.118 90.946 573.878 90.838C573.65 90.73 573.47 90.556 573.338 90.316C573.206 90.076 573.14 89.752 573.14 89.344V85.726L573.086 85.474C573.086 84.922 572.948 84.46 572.672 84.088C572.408 83.716 571.91 83.53 571.178 83.53C570.554 83.53 570.032 83.692 569.612 84.016C569.204 84.328 568.886 84.724 568.658 85.204L567.596 84.106C567.776 83.806 568.034 83.506 568.37 83.206C568.718 82.894 569.144 82.636 569.648 82.432C570.152 82.216 570.722 82.108 571.358 82.108C572.426 82.108 573.242 82.408 573.806 83.008C574.37 83.596 574.652 84.412 574.652 85.456V89.038C574.652 89.242 574.694 89.386 574.778 89.47C574.862 89.542 574.982 89.578 575.138 89.578H575.696V91ZM570.116 91.18C569.384 91.18 568.814 90.994 568.406 90.622C568.01 90.238 567.812 89.758 567.812 89.182C567.812 88.594 568.01 88.108 568.406 87.724C568.802 87.328 569.312 86.992 569.936 86.716L573.356 85.186L573.59 86.23L570.584 87.634C570.176 87.838 569.876 88.042 569.684 88.246C569.492 88.438 569.396 88.666 569.396 88.93C569.396 89.23 569.498 89.464 569.702 89.632C569.906 89.8 570.212 89.884 570.62 89.884C570.992 89.884 571.328 89.83 571.628 89.722C571.94 89.602 572.204 89.44 572.42 89.236C572.648 89.032 572.822 88.798 572.942 88.534C573.074 88.27 573.14 87.976 573.14 87.652L573.194 88.48C573.122 88.888 572.966 89.302 572.726 89.722C572.486 90.13 572.15 90.478 571.718 90.766C571.286 91.042 570.752 91.18 570.116 91.18ZM584.835 91H583.287V85.366C583.287 84.802 583.149 84.34 582.873 83.98C582.609 83.62 582.105 83.44 581.361 83.44C580.797 83.44 580.347 83.56 580.011 83.8C579.675 84.028 579.429 84.34 579.273 84.736C579.129 85.132 579.057 85.576 579.057 86.068L578.949 85.33C579.009 84.79 579.153 84.274 579.381 83.782C579.621 83.278 579.957 82.876 580.389 82.576C580.833 82.264 581.391 82.108 582.063 82.108C582.915 82.108 583.587 82.36 584.079 82.864C584.583 83.356 584.835 84.064 584.835 84.988V91ZM579.057 91H577.509V82.288H579.057V91ZM590.203 91.216C589.483 91.216 588.853 91.03 588.313 90.658C587.773 90.274 587.359 89.74 587.071 89.056C586.783 88.372 586.639 87.574 586.639 86.662C586.639 85.738 586.783 84.94 587.071 84.268C587.359 83.584 587.773 83.056 588.313 82.684C588.853 82.3 589.483 82.108 590.203 82.108C590.875 82.108 591.415 82.264 591.823 82.576C592.231 82.876 592.537 83.272 592.741 83.764C592.945 84.256 593.077 84.772 593.137 85.312L593.011 86.05C593.011 85.57 592.939 85.132 592.795 84.736C592.651 84.34 592.411 84.028 592.075 83.8C591.739 83.56 591.289 83.44 590.725 83.44C590.041 83.44 589.453 83.698 588.961 84.214C588.469 84.73 588.223 85.546 588.223 86.662C588.223 87.766 588.469 88.582 588.961 89.11C589.453 89.638 590.041 89.902 590.725 89.902C591.289 89.902 591.739 89.782 592.075 89.542C592.411 89.302 592.651 88.99 592.795 88.606C592.939 88.21 593.011 87.772 593.011 87.292L593.137 88.03C593.077 88.558 592.945 89.068 592.741 89.56C592.537 90.04 592.231 90.436 591.823 90.748C591.415 91.06 590.875 91.216 590.203 91.216ZM594.577 91H593.011V78.94H594.577V91ZM604.614 91.18C603.798 91.18 603.072 90.994 602.436 90.622C601.812 90.25 601.32 89.728 600.96 89.056C600.612 88.372 600.438 87.568 600.438 86.644C600.438 85.72 600.612 84.922 600.96 84.25C601.308 83.566 601.788 83.038 602.4 82.666C603.024 82.294 603.732 82.108 604.524 82.108C605.34 82.108 606.042 82.282 606.63 82.63C607.23 82.966 607.686 83.446 607.998 84.07C608.322 84.694 608.484 85.438 608.484 86.302C608.484 86.434 608.478 86.566 608.466 86.698C608.454 86.818 608.436 86.92 608.412 87.004H601.626V85.87H607.476L607.098 86.41C607.098 85.426 606.87 84.682 606.414 84.178C605.958 83.674 605.328 83.422 604.524 83.422C603.732 83.422 603.102 83.686 602.634 84.214C602.178 84.73 601.95 85.51 601.95 86.554V86.752C601.95 87.412 602.058 87.976 602.274 88.444C602.49 88.912 602.796 89.272 603.192 89.524C603.6 89.764 604.074 89.884 604.614 89.884C605.202 89.884 605.676 89.794 606.036 89.614C606.408 89.434 606.702 89.212 606.918 88.948C607.134 88.672 607.296 88.414 607.404 88.174L608.358 89.254C608.034 89.77 607.566 90.22 606.954 90.604C606.342 90.988 605.562 91.18 604.614 91.18ZM617.901 91H616.893C616.593 91 616.323 90.946 616.083 90.838C615.855 90.73 615.675 90.556 615.543 90.316C615.411 90.076 615.345 89.752 615.345 89.344V85.726L615.291 85.474C615.291 84.922 615.153 84.46 614.877 84.088C614.613 83.716 614.115 83.53 613.383 83.53C612.759 83.53 612.237 83.692 611.817 84.016C611.409 84.328 611.091 84.724 610.863 85.204L609.801 84.106C609.981 83.806 610.239 83.506 610.575 83.206C610.923 82.894 611.349 82.636 611.853 82.432C612.357 82.216 612.927 82.108 613.563 82.108C614.631 82.108 615.447 82.408 616.011 83.008C616.575 83.596 616.857 84.412 616.857 85.456V89.038C616.857 89.242 616.899 89.386 616.983 89.47C617.067 89.542 617.187 89.578 617.343 89.578H617.901V91ZM612.321 91.18C611.589 91.18 611.019 90.994 610.611 90.622C610.215 90.238 610.017 89.758 610.017 89.182C610.017 88.594 610.215 88.108 610.611 87.724C611.007 87.328 611.517 86.992 612.141 86.716L615.561 85.186L615.795 86.23L612.789 87.634C612.381 87.838 612.081 88.042 611.889 88.246C611.697 88.438 611.601 88.666 611.601 88.93C611.601 89.23 611.703 89.464 611.907 89.632C612.111 89.8 612.417 89.884 612.825 89.884C613.197 89.884 613.533 89.83 613.833 89.722C614.145 89.602 614.409 89.44 614.625 89.236C614.853 89.032 615.027 88.798 615.147 88.534C615.279 88.27 615.345 87.976 615.345 87.652L615.399 88.48C615.327 88.888 615.171 89.302 614.931 89.722C614.691 90.13 614.355 90.478 613.923 90.766C613.491 91.042 612.957 91.18 612.321 91.18ZM622.835 91.18C622.235 91.18 621.659 91.09 621.107 90.91C620.555 90.73 620.075 90.466 619.667 90.118C619.271 89.758 618.971 89.308 618.767 88.768L619.901 87.886C620.009 88.21 620.183 88.528 620.423 88.84C620.675 89.14 621.005 89.386 621.413 89.578C621.821 89.77 622.313 89.866 622.889 89.866C623.405 89.866 623.819 89.77 624.131 89.578C624.443 89.374 624.599 89.08 624.599 88.696C624.599 88.3 624.419 88.018 624.059 87.85C623.711 87.682 623.285 87.538 622.781 87.418L621.629 87.148C621.221 87.052 620.819 86.914 620.423 86.734C620.027 86.542 619.697 86.284 619.433 85.96C619.169 85.624 619.037 85.192 619.037 84.664C619.037 83.872 619.319 83.248 619.883 82.792C620.447 82.336 621.203 82.108 622.151 82.108C623.075 82.108 623.843 82.318 624.455 82.738C625.079 83.158 625.511 83.656 625.751 84.232L624.563 85.114C624.347 84.598 624.029 84.19 623.609 83.89C623.201 83.59 622.685 83.44 622.061 83.44C621.605 83.44 621.233 83.536 620.945 83.728C620.657 83.92 620.513 84.202 620.513 84.574C620.513 84.958 620.657 85.24 620.945 85.42C621.245 85.6 621.689 85.762 622.277 85.906L623.393 86.194C624.377 86.422 625.055 86.746 625.427 87.166C625.811 87.574 626.003 88.078 626.003 88.678C626.003 89.254 625.853 89.728 625.553 90.1C625.265 90.46 624.881 90.73 624.401 90.91C623.933 91.09 623.411 91.18 622.835 91.18ZM628.833 93.862C628.425 93.862 628.053 93.79 627.717 93.646C627.381 93.514 627.093 93.34 626.853 93.124C626.625 92.908 626.445 92.68 626.313 92.44L627.159 91.27C627.363 91.606 627.591 91.888 627.843 92.116C628.107 92.356 628.443 92.476 628.851 92.476C629.199 92.476 629.493 92.374 629.733 92.17C629.985 91.966 630.195 91.6 630.363 91.072L630.705 90.01L631.083 90.514L629.571 90.532L626.637 82.288H628.311L630.183 87.886L630.795 89.758L631.407 87.886L633.261 82.288H634.935L631.587 91.72C631.299 92.512 630.921 93.064 630.453 93.376C629.985 93.7 629.445 93.862 628.833 93.862ZM637.051 91H635.161V88.66H637.051V91Z" fill="black"/>
</svg>
