<svg width="24" height="24" viewBox="0 0 24 24" fill="none" xmlns="http://www.w3.org/2000/svg">
<path d="M18.0001 7.16C17.9401 7.15 17.8701 7.15 17.8101 7.16C16.4301 7.11 15.3301 5.98 15.3301 4.58C15.3301 3.15 16.4801 2 17.9101 2C19.3401 2 20.4901 3.16 20.4901 4.58C20.4801 5.98 19.3801 7.11 18.0001 7.16Z" stroke="black" stroke-width="1.5" stroke-linecap="round" stroke-linejoin="round"/>
<path d="M16.9704 14.4402C18.3404 14.6702 19.8504 14.4302 20.9104 13.7202C22.3204 12.7802 22.3204 11.2402 20.9104 10.3002C19.8404 9.59016 18.3104 9.35016 16.9404 9.59016" stroke="black" stroke-width="1.5" stroke-linecap="round" stroke-linejoin="round"/>
<path d="M5.97047 7.16C6.03047 7.15 6.10047 7.15 6.16047 7.16C7.54047 7.11 8.64047 5.98 8.64047 4.58C8.64047 3.15 7.49047 2 6.06047 2C4.63047 2 3.48047 3.16 3.48047 4.58C3.49047 5.98 4.59047 7.11 5.97047 7.16Z" stroke="black" stroke-width="1.5" stroke-linecap="round" stroke-linejoin="round"/>
<path d="M7.00043 14.4402C5.63043 14.6702 4.12043 14.4302 3.06043 13.7202C1.65043 12.7802 1.65043 11.2402 3.06043 10.3002C4.13043 9.59016 5.66043 9.35016 7.03043 9.59016" stroke="black" stroke-width="1.5" stroke-linecap="round" stroke-linejoin="round"/>
<path d="M12.0001 14.6307C11.9401 14.6207 11.8701 14.6207 11.8101 14.6307C10.4301 14.5807 9.33008 13.4507 9.33008 12.0507C9.33008 10.6207 10.4801 9.4707 11.9101 9.4707C13.3401 9.4707 14.4901 10.6307 14.4901 12.0507C14.4801 13.4507 13.3801 14.5907 12.0001 14.6307Z" stroke="black" stroke-width="1.5" stroke-linecap="round" stroke-linejoin="round"/>
<path d="M9.08973 17.7813C7.67973 18.7213 7.67973 20.2613 9.08973 21.2013C10.6897 22.2713 13.3097 22.2713 14.9097 21.2013C16.3197 20.2613 16.3197 18.7213 14.9097 17.7813C13.3197 16.7213 10.6897 16.7213 9.08973 17.7813Z" stroke="black" stroke-width="1.5" stroke-linecap="round" stroke-linejoin="round"/>
</svg>
